<?xml version="1.0" standalone="no"?>
<!DOCTYPE svg PUBLIC "-//W3C//DTD SVG 20010904//EN"
 "http://www.w3.org/TR/2001/REC-SVG-20010904/DTD/svg10.dtd">
<svg version="1.0" xmlns="http://www.w3.org/2000/svg"
 width="700.000000pt" height="376.000000pt" viewBox="0 0 700.000000 376.000000"
 preserveAspectRatio="xMidYMid meet">

<g transform="translate(0.000000,376.000000) scale(0.100000,-0.100000)"
fill="#000000" stroke="none">
<path d="M6196 3075 c41 -102 78 -231 69 -245 -3 -5 -12 -10 -20 -10 -7 0 -35
-16 -61 -36 l-47 -36 -61 13 c-78 18 -340 17 -421 0 -217 -48 -390 -139 -547
-289 -88 -84 -134 -142 -193 -244 -39 -67 -43 -70 -115 -102 -66 -28 -127 -61
-214 -115 -20 -13 -26 -12 -54 9 -46 34 -130 39 -177 12 l-35 -21 -45 77 c-25
42 -62 116 -82 165 -41 99 -58 110 -23 15 29 -80 75 -171 111 -224 l28 -41
-25 -36 c-44 -66 -44 -135 2 -202 l24 -37 -34 -56 c-65 -109 -138 -311 -135
-376 1 -25 2 -20 44 119 25 84 98 248 129 288 12 16 16 16 52 1 51 -21 122
-14 164 16 30 22 35 22 59 9 25 -14 26 -18 23 -81 -3 -45 1 -75 12 -95 24 -47
82 -92 127 -99 22 -4 42 -12 43 -18 31 -121 98 -281 133 -316 8 -8 1 13 -17
48 -35 72 -84 201 -93 248 -6 30 -4 33 40 49 32 12 54 30 76 61 26 37 34 43
56 37 39 -9 41 -11 41 -46 0 -46 41 -101 95 -127 106 -51 236 14 254 128 5 31
11 37 41 45 26 7 35 5 39 -5 2 -7 20 -29 40 -50 90 -90 236 -66 291 47 19 39
22 57 17 105 -6 52 -4 61 14 74 19 13 24 12 56 -10 62 -42 133 -43 200 -2 l32
19 45 -78 c54 -91 101 -210 123 -308 19 -88 33 -106 21 -28 -18 117 -73 259
-145 371 l-34 54 22 45 c26 54 22 127 -11 172 -23 33 -24 44 -8 70 9 16 20 18
73 14 101 -9 168 38 194 135 18 65 0 117 -61 175 -40 40 -49 53 -44 73 4 15
16 26 34 29 61 13 130 64 144 107 10 30 225 -170 296 -275 18 -27 51 -82 73
-123 22 -41 43 -74 45 -74 9 0 -32 89 -70 152 -58 98 -164 218 -256 289 l-80
62 0 52 c0 38 -6 61 -23 86 -29 44 -82 79 -119 79 -33 0 -37 8 -68 122 -21 77
-74 203 -90 213 -5 3 7 -33 26 -80z m-106 -333 l35 -8 -3 -71 c-3 -50 1 -79
12 -100 20 -40 72 -83 107 -90 30 -6 36 -22 19 -53 -6 -11 -17 -16 -28 -13
-30 7 -98 -15 -132 -43 -44 -37 -60 -75 -60 -139 0 -63 9 -86 51 -130 27 -29
28 -32 13 -53 -14 -21 -17 -21 -44 -7 -42 22 -126 19 -165 -5 l-32 -20 -74 44
c-86 52 -197 98 -307 128 -104 29 -390 31 -496 5 -38 -10 -71 -15 -73 -13 -8
8 37 85 97 164 158 210 397 357 663 408 77 14 350 12 417 -4z m-690 -563 c135
-21 337 -100 423 -165 l25 -19 -21 -29 c-27 -39 -34 -120 -14 -169 15 -35 15
-37 -6 -52 -20 -14 -23 -13 -52 14 -44 42 -67 51 -128 51 -94 0 -165 -68 -176
-169 -6 -54 -7 -56 -37 -59 -27 -3 -33 1 -39 25 -10 41 -49 88 -88 107 -40 18
-118 21 -150 5 -39 -20 -96 -81 -102 -111 -5 -23 -12 -28 -36 -28 -27 0 -29 2
-29 40 0 45 -21 104 -48 133 -22 25 -86 57 -112 57 -16 0 -19 5 -16 23 3 12
10 47 16 77 6 30 25 94 42 142 30 87 30 87 77 102 25 9 71 20 101 25 78 12
293 13 370 0z m-545 -66 c-28 -69 -55 -164 -66 -227 -12 -72 -14 -75 -44 -80
-18 -4 -50 -22 -72 -41 -46 -39 -50 -40 -76 -21 -16 12 -16 16 -2 49 19 46 19
108 0 153 -14 34 -14 37 8 55 26 21 233 129 248 129 7 0 8 -7 4 -17z m389
-404 c54 -13 105 -63 116 -112 7 -32 5 -37 -14 -44 -35 -12 -285 -8 -298 5
-16 16 5 82 36 111 21 20 85 49 109 51 5 0 28 -5 51 -11z"/>
<path d="M362 2083 c-77 -23 -138 -80 -158 -150 -36 -123 23 -234 145 -278 58
-20 212 -19 266 1 22 9 52 18 68 21 15 3 27 7 27 10 0 3 -68 113 -75 121 -2 2
-12 -5 -24 -17 -43 -43 -149 -53 -219 -21 -101 46 -84 179 27 210 74 21 169 5
195 -32 14 -19 16 -17 51 52 27 54 32 71 20 66 -9 -3 -51 3 -93 14 -89 23
-157 24 -230 3z"/>
<path d="M828 2078 c15 -15 17 -418 2 -418 -5 0 -10 -4 -10 -10 0 -6 79 -10
218 -10 156 0 221 -3 230 -12 9 -9 12 6 12 67 0 61 -3 76 -12 67 -8 -8 -57
-12 -155 -12 l-143 0 0 158 c0 110 4 162 12 170 9 9 -8 12 -77 12 -69 0 -86
-3 -77 -12z"/>
<path d="M1526 2077 c5 -15 -118 -368 -142 -404 -7 -12 -14 -25 -14 -28 0 -3
32 -5 71 -5 67 0 70 1 64 21 -4 11 -1 34 5 50 l12 29 104 0 c104 0 105 0 115
-27 5 -15 8 -38 4 -50 -5 -23 -4 -23 75 -23 44 0 80 2 80 5 0 3 -6 16 -14 28
-28 42 -157 382 -152 399 4 16 -6 18 -105 18 -87 0 -107 -3 -103 -13z m133
-162 c17 -44 31 -85 31 -92 0 -9 -20 -13 -70 -13 -38 0 -70 1 -70 3 0 6 61
171 67 180 7 12 8 10 42 -78z"/>
<path d="M2018 2078 c15 -15 17 -418 2 -418 -5 0 -10 -4 -10 -10 0 -6 36 -10
87 -10 68 0 84 3 75 12 -7 7 -12 42 -12 85 l0 73 44 0 c43 0 45 -1 86 -65 27
-42 40 -72 37 -85 -5 -19 0 -20 84 -20 53 0 89 4 89 10 0 6 -4 10 -10 10 -5 0
-31 32 -57 71 -45 67 -47 73 -29 83 45 26 75 59 86 92 23 68 -11 143 -76 170
-45 19 -414 20 -396 2z m332 -98 c24 -24 24 -30 6 -56 -12 -16 -29 -20 -105
-22 l-91 -4 0 51 0 51 85 0 c72 0 88 -3 105 -20z"/>
<path d="M2665 2066 c13 -20 15 -54 13 -207 -2 -101 -7 -192 -12 -201 -7 -16
-1 -18 73 -18 47 0 81 4 81 10 0 6 -4 10 -10 10 -15 0 -13 403 2 418 9 9 -7
12 -75 12 l-87 0 15 -24z"/>
<path d="M2989 2076 c9 -10 11 -74 9 -225 l-3 -211 68 0 c61 0 83 9 57 25 -6
4 -10 60 -10 138 l1 132 65 -70 c138 -147 174 -192 168 -209 -5 -14 4 -16 70
-16 69 0 92 9 66 25 -6 4 -10 81 -10 197 0 164 2 194 17 210 15 17 13 18 -66
18 l-82 0 15 -22 c18 -25 23 -202 7 -212 -4 -3 -52 42 -105 101 -77 84 -94
108 -85 119 10 12 -5 14 -91 14 -87 0 -101 -2 -91 -14z"/>
<path d="M3648 1418 c7 -7 12 -20 12 -30 0 -15 -5 -17 -25 -12 -35 9 -55 -11
-55 -55 0 -39 14 -61 39 -61 11 0 9 5 -7 16 -25 17 -29 51 -8 80 12 15 18 17
33 8 21 -13 29 -59 13 -78 -8 -10 -7 -15 6 -20 27 -10 39 -7 26 6 -7 7 -12 42
-12 85 0 62 -3 73 -17 73 -13 0 -14 -3 -5 -12z"/>
<path d="M31 1401 c-43 -43 -16 -141 38 -141 30 0 51 11 51 27 0 12 -2 12 -16
-1 -19 -20 -35 -20 -59 -2 -23 17 -27 85 -6 110 20 24 60 20 71 -6 10 -23 10
-23 7 2 -3 34 -56 41 -86 11z"/>
<path d="M1048 1411 c10 -6 13 -28 10 -80 l-3 -71 47 0 c48 0 69 13 49 33 -8
8 -11 6 -11 -6 0 -12 -8 -17 -30 -17 l-30 0 0 69 c0 46 4 71 13 74 6 3 -4 6
-23 6 -23 0 -30 -2 -22 -8z"/>
<path d="M2158 1413 c8 -3 12 -28 12 -73 0 -45 -4 -70 -12 -73 -7 -3 0 -6 17
-6 22 -1 26 2 17 11 -7 7 -12 22 -12 35 0 39 43 31 63 -12 9 -19 21 -35 27
-35 5 0 0 16 -12 35 -19 33 -19 37 -4 54 37 41 8 72 -66 70 -24 0 -37 -3 -30
-6z m90 -20 c14 -27 3 -43 -29 -43 -31 0 -45 19 -35 45 8 21 53 19 64 -2z"/>
<path d="M167 1362 c-47 -52 18 -135 67 -86 33 33 10 104 -33 104 -10 0 -25
-8 -34 -18z m47 2 c22 -9 22 -80 0 -88 -36 -14 -62 52 -32 82 14 14 12 14 32
6z"/>
<path d="M285 1320 c0 -57 1 -60 25 -60 18 0 21 3 12 9 -9 5 -13 24 -11 57 3
37 0 50 -11 52 -12 2 -15 -10 -15 -58z"/>
<path d="M348 1364 c25 -17 31 -71 10 -92 -9 -9 -7 -12 9 -12 19 0 21 5 16 38
-6 48 17 83 41 63 19 -16 21 -72 4 -89 -9 -9 -6 -12 17 -12 23 0 26 3 17 12
-7 7 -12 31 -12 55 0 49 -19 65 -53 44 -14 -9 -22 -10 -30 -2 -6 6 -18 11 -26
11 -11 0 -9 -5 7 -16z"/>
<path d="M499 1372 c9 -7 12 -25 10 -61 -3 -40 -1 -51 11 -51 12 0 15 12 14
57 -2 53 -4 58 -25 61 -17 2 -20 0 -10 -6z"/>
<path d="M570 1360 c22 -22 26 -51 10 -81 -9 -17 -7 -19 17 -18 15 0 22 3 16
6 -18 7 -16 78 2 93 34 28 65 -56 33 -88 -9 -9 -6 -12 17 -12 23 0 26 3 17 12
-7 7 -12 31 -12 55 0 49 -19 65 -53 44 -14 -9 -22 -10 -30 -2 -6 6 -17 11 -24
11 -8 0 -6 -7 7 -20z"/>
<path d="M733 1368 c-42 -55 0 -128 57 -98 28 15 36 55 16 85 -18 27 -57 34
-73 13z m55 -10 c33 -33 -1 -98 -40 -77 -32 17 -18 89 17 89 6 0 16 -5 23 -12z"/>
<path d="M850 1366 c14 -14 13 -79 -2 -94 -9 -9 -6 -12 16 -12 24 0 26 2 17
14 -17 21 -9 77 12 90 15 9 21 7 33 -8 17 -24 18 -68 2 -84 -9 -9 -8 -12 8
-12 17 0 19 6 15 48 -4 61 -13 70 -67 69 -31 0 -42 -3 -34 -11z"/>
<path d="M1197 1373 c-14 -13 -7 -25 8 -13 8 7 22 10 30 6 21 -8 19 -36 -3
-36 -10 0 -27 -6 -38 -14 -30 -23 -7 -51 42 -52 l39 0 -4 45 c-2 25 -8 52 -13
59 -11 13 -50 17 -61 5z m53 -72 c0 -22 -29 -36 -43 -22 -15 15 0 41 23 41 13
0 20 -7 20 -19z"/>
<path d="M1315 1319 c0 -46 3 -59 15 -59 11 0 15 12 15 46 0 34 5 50 18 58 14
9 20 8 27 -4 14 -22 12 -87 -2 -93 -7 -3 0 -6 16 -6 22 -1 26 2 18 12 -6 7
-12 33 -14 57 l-3 45 -45 1 -45 2 0 -59z"/>
<path d="M1471 1367 c-16 -16 -14 -82 4 -97 8 -6 23 -9 35 -5 16 5 20 2 20
-14 0 -17 -7 -21 -32 -22 -32 -2 -32 -2 -5 -6 43 -7 57 12 57 76 0 31 5 62 10
67 8 8 -3 11 -34 11 -24 1 -49 -4 -55 -10z m59 -18 c23 -42 -13 -95 -46 -68
-17 14 -18 43 -4 70 14 25 36 24 50 -2z"/>
<path d="M1588 1368 c7 -7 12 -31 12 -54 0 -34 4 -44 20 -49 12 -4 27 -1 35 5
11 9 15 9 15 1 0 -6 8 -11 17 -11 13 0 14 3 5 12 -7 7 -12 34 -12 60 0 26 -4
48 -9 48 -5 0 -6 -19 -4 -43 4 -31 1 -46 -11 -56 -26 -21 -46 3 -46 55 0 35
-4 44 -17 44 -13 0 -14 -3 -5 -12z"/>
<path d="M1737 1373 c-15 -14 -6 -22 12 -11 15 9 23 9 35 -1 23 -19 20 -31 -8
-31 -24 0 -56 -23 -56 -40 0 -15 24 -25 60 -26 l35 0 -4 50 c-2 28 -8 54 -15
58 -14 10 -50 10 -59 1z m60 -70 c6 -17 -36 -38 -49 -25 -17 17 -1 44 24 40
12 -2 23 -8 25 -15z"/>
<path d="M1861 1367 c-6 -6 -11 -28 -11 -49 0 -42 26 -64 61 -53 17 6 20 3 17
-11 -2 -11 -16 -22 -33 -26 -29 -6 -29 -6 5 -5 l35 2 3 65 c2 35 7 69 12 76
13 15 -74 16 -89 1z m58 -11 c17 -20 10 -67 -12 -80 -15 -9 -21 -7 -33 8 -18
26 -18 51 2 70 19 20 28 20 43 2z"/>
<path d="M1990 1360 c-6 -12 -10 -35 -8 -53 2 -24 9 -34 31 -41 20 -7 30 -6
40 3 10 11 8 12 -9 7 -14 -4 -28 -1 -38 9 -22 23 -11 35 30 35 36 0 41 9 24
41 -14 25 -56 25 -70 -1z m58 -13 c3 -12 -3 -17 -22 -17 -25 0 -35 18 -19 34
12 12 38 2 41 -17z"/>
<path d="M2323 1368 c-18 -24 -22 -48 -13 -73 11 -28 55 -44 73 -25 9 10 7 11
-11 5 -25 -7 -52 9 -52 31 0 10 13 14 40 14 45 0 44 -1 28 35 -12 27 -48 34
-65 13z m55 -21 c3 -13 -3 -17 -27 -17 -33 0 -39 8 -19 28 17 17 42 11 46 -11z"/>
<path d="M2437 1374 c-17 -18 -6 -46 23 -55 32 -12 40 -36 15 -45 -8 -4 -22
-1 -30 6 -9 7 -19 10 -22 6 -10 -10 17 -26 43 -26 23 0 44 18 44 38 0 7 -16
20 -36 28 -19 8 -34 20 -31 27 5 18 38 21 49 5 8 -10 9 -10 5 2 -4 16 -48 26
-60 14z"/>
<path d="M2552 1368 c-7 -7 -12 -29 -12 -50 0 -46 28 -67 66 -49 19 8 24 18
24 49 0 43 -14 62 -45 62 -12 0 -26 -5 -33 -12z m56 -10 c16 -16 15 -63 -2
-77 -33 -27 -69 26 -46 68 12 24 30 27 48 9z"/>
<path d="M2668 1333 c5 -59 13 -68 63 -69 30 0 38 3 34 14 -3 7 -5 34 -5 58 0
35 -4 44 -17 44 -13 0 -14 -3 -5 -12 20 -20 15 -76 -7 -88 -28 -15 -51 12 -51
61 0 21 -3 39 -8 39 -4 0 -6 -21 -4 -47z"/>
<path d="M2809 1367 c15 -15 14 -80 -1 -95 -9 -9 -5 -12 17 -11 17 0 24 3 18
6 -7 2 -13 22 -13 43 0 27 6 41 21 52 21 13 20 14 -16 15 -27 1 -34 -2 -26
-10z"/>
<path d="M2912 1368 c-7 -7 -12 -29 -12 -50 0 -46 28 -67 68 -49 13 7 22 14
19 18 -4 3 -13 0 -21 -6 -38 -32 -76 38 -40 73 19 20 23 20 46 -1 10 -9 18
-12 18 -7 0 17 -23 34 -45 34 -12 0 -26 -5 -33 -12z"/>
<path d="M3024 1354 c-13 -19 -15 -32 -8 -52 11 -33 58 -52 77 -33 10 11 8 12
-11 6 -25 -7 -52 9 -52 31 0 10 13 14 40 14 45 0 44 -1 30 34 -13 35 -54 35
-76 0z m50 10 c28 -11 18 -34 -14 -34 -32 0 -37 9 -18 28 14 14 12 14 32 6z"/>
<path d="M3147 1374 c-17 -18 -6 -46 23 -55 32 -12 40 -36 15 -45 -8 -4 -23 0
-32 7 -14 12 -16 12 -11 -1 6 -19 45 -25 64 -10 23 20 16 40 -21 56 -19 8 -35
19 -35 24 0 18 29 23 47 9 14 -12 16 -12 11 1 -5 16 -49 26 -61 14z"/>
<path d="M3317 1373 c-15 -15 -6 -22 14 -11 17 11 22 10 35 -7 14 -19 13 -20
-17 -27 -29 -5 -48 -22 -49 -40 0 -13 25 -23 60 -24 l35 0 -4 45 c-2 25 -8 52
-13 59 -11 13 -50 17 -61 5z m60 -70 c6 -17 -36 -38 -49 -25 -17 17 -1 44 24
40 12 -2 23 -8 25 -15z"/>
<path d="M3429 1371 c9 -6 12 -24 10 -60 -4 -49 -3 -51 21 -50 14 0 19 3 13 6
-18 7 -16 78 2 93 29 24 47 4 43 -50 -3 -44 -1 -50 17 -50 15 0 16 3 7 12 -7
7 -12 31 -12 55 0 48 -19 65 -51 44 -12 -7 -19 -7 -19 -1 0 5 -10 10 -22 10
-17 0 -19 -3 -9 -9z"/>
<path d="M828 1171 c10 -6 13 -29 10 -85 -2 -63 0 -76 12 -76 12 0 15 9 12 40
-3 24 1 47 9 57 10 12 10 15 2 9 -10 -5 -13 3 -13 28 0 31 -3 36 -22 36 -17 0
-19 -3 -10 -9z"/>
<path d="M1258 1168 c7 -7 12 -39 12 -73 0 -34 -5 -66 -12 -73 -9 -9 -5 -12
18 -11 16 0 23 3 17 6 -9 3 -13 30 -13 84 0 68 -2 79 -17 79 -13 0 -14 -3 -5
-12z"/>
<path d="M2011 1166 c-7 -8 -13 -46 -14 -85 -2 -70 -2 -71 23 -70 14 0 19 3
13 6 -8 3 -13 24 -13 53 0 29 5 50 13 53 10 4 10 6 0 6 -19 1 -16 28 5 40 15
9 15 10 1 11 -9 0 -22 -6 -28 -14z"/>
<path d="M460 1153 c0 -14 2 -15 9 -5 5 8 17 12 27 10 16 -3 20 -14 22 -61 2
-35 -2 -64 -9 -73 -9 -12 -6 -14 17 -13 16 0 23 3 17 6 -9 3 -13 28 -13 74 0
61 2 69 19 69 11 0 22 -6 24 -12 3 -8 6 -6 6 5 1 14 -8 17 -59 17 -51 0 -60
-3 -60 -17z"/>
<path d="M1768 1163 c8 -3 12 -28 12 -73 0 -45 -4 -70 -12 -73 -7 -3 0 -6 15
-6 17 -1 26 3 22 9 -13 21 -17 108 -6 129 11 19 9 21 -16 20 -15 0 -22 -3 -15
-6z"/>
<path d="M2412 1138 c-8 -8 -8 -17 -1 -30 6 -11 10 -31 9 -46 -3 -46 -1 -52
23 -51 16 1 18 2 5 6 -14 3 -18 15 -18 53 0 27 4 50 9 52 5 2 3 8 -4 15 -9 8
-16 8 -23 1z"/>
<path d="M2842 1134 c-7 -8 -8 -15 -2 -19 6 -3 10 -28 10 -56 0 -44 2 -49 23
-49 20 1 20 2 5 11 -13 7 -18 23 -18 54 0 24 4 45 9 47 5 2 4 8 -3 14 -8 8
-15 7 -24 -2z"/>
<path d="M620 1110 c-25 -25 -26 -62 -2 -83 20 -18 57 -23 66 -8 3 4 -6 6 -20
3 -16 -3 -30 1 -35 9 -17 27 -9 39 26 39 28 0 35 4 35 20 0 10 -9 24 -19 30
-26 13 -28 13 -51 -10z m48 -2 c19 -19 14 -28 -18 -28 -16 0 -30 4 -30 8 0 9
21 32 30 32 3 0 11 -5 18 -12z"/>
<path d="M732 1114 c-36 -25 -23 -104 18 -104 27 0 50 11 50 23 0 7 -4 7 -12
-1 -20 -20 -48 -14 -60 13 -9 19 -8 29 6 50 19 29 29 31 50 9 9 -8 16 -11 16
-5 0 9 -30 31 -42 31 -2 0 -14 -7 -26 -16z"/>
<path d="M903 1112 c20 -22 23 -88 5 -95 -7 -3 0 -6 17 -6 22 -1 26 2 17 11
-7 7 -12 28 -12 48 0 35 -14 60 -34 60 -5 0 -2 -8 7 -18z"/>
<path d="M988 1079 c3 -37 1 -54 -9 -60 -10 -6 -7 -9 11 -9 25 0 25 1 20 57
-3 31 -10 58 -16 60 -8 3 -10 -13 -6 -48z"/>
<path d="M1053 1112 c20 -22 22 -73 5 -90 -9 -9 -5 -12 17 -11 17 0 24 3 18 6
-8 3 -13 22 -13 47 0 40 -13 66 -34 66 -5 0 -2 -8 7 -18z"/>
<path d="M1145 1116 c-21 -15 -25 -67 -5 -90 15 -19 51 -21 68 -4 17 17 15 74
-4 92 -19 20 -35 20 -59 2z m61 -61 c-13 -52 -66 -39 -66 16 0 38 29 54 54 29
13 -13 17 -26 12 -45z"/>
<path d="M1342 1114 c-43 -30 -20 -104 33 -104 46 0 62 77 23 104 -12 9 -25
16 -28 16 -3 0 -16 -7 -28 -16z m54 -19 c22 -34 5 -78 -29 -73 -17 2 -23 11
-25 36 -3 32 11 62 29 62 5 0 16 -11 25 -25z"/>
<path d="M1466 1118 c-43 -24 -18 -114 30 -105 18 3 24 0 24 -13 0 -21 -22
-32 -47 -24 -17 5 -17 5 0 -6 24 -15 56 -3 61 23 3 12 7 47 9 78 l3 55 -33 0
c-18 0 -39 -4 -47 -8z m54 -49 c0 -43 -20 -60 -45 -39 -19 16 -19 54 0 74 25
25 45 9 45 -35z"/>
<path d="M1596 1075 c29 -66 29 -73 7 -97 -10 -11 -12 -18 -4 -18 6 0 25 28
40 63 42 94 45 107 26 107 -11 0 -15 -5 -12 -14 6 -15 -13 -76 -23 -76 -10 0
-32 69 -25 80 3 5 -3 10 -14 10 -19 0 -19 -1 5 -55z"/>
<path d="M1845 1070 c0 -58 1 -60 25 -59 14 0 19 3 13 6 -21 8 -16 81 5 92 13
7 23 6 30 -1 16 -16 15 -85 0 -91 -7 -3 -1 -6 13 -6 23 -1 25 2 22 32 -10 79
-25 97 -63 77 -13 -7 -21 -7 -25 0 -14 22 -20 7 -20 -50z"/>
<path d="M2075 1070 c0 -58 1 -60 25 -59 14 0 19 3 13 6 -8 2 -13 22 -13 45 0
31 4 41 20 45 11 3 20 9 20 15 0 5 -8 4 -19 -2 -13 -7 -22 -7 -26 0 -14 22
-20 7 -20 -50z"/>
<path d="M2183 1123 c-7 -2 -13 -12 -13 -21 0 -14 2 -14 13 2 8 11 19 15 30
10 20 -7 23 -30 5 -37 -10 -4 -10 -6 0 -6 18 -1 15 -41 -4 -48 -23 -9 -40 13
-24 32 7 8 8 15 2 15 -16 0 -35 -29 -29 -45 5 -10 19 -14 49 -13 l43 2 -3 46
c-5 57 -29 80 -69 63z"/>
<path d="M2308 1119 c-28 -16 -21 -37 17 -53 19 -8 35 -20 35 -26 0 -18 -31
-24 -52 -11 -16 10 -19 10 -16 -1 7 -19 62 -22 78 -4 16 20 1 41 -35 50 -28 7
-33 33 -9 43 11 4 22 -1 30 -12 12 -16 14 -16 14 -3 0 25 -33 34 -62 17z"/>
<path d="M2488 1118 c16 -16 16 -95 0 -101 -7 -3 0 -6 17 -6 22 -1 26 2 17 11
-22 22 -12 88 14 88 8 0 14 5 14 10 0 7 -6 7 -20 0 -14 -7 -20 -7 -20 0 0 5
-8 10 -17 10 -13 0 -14 -3 -5 -12z"/>
<path d="M2587 1083 c6 -67 9 -73 35 -72 l23 0 -22 9 c-20 8 -23 17 -23 60 0
27 -4 50 -9 50 -5 0 -6 -21 -4 -47z"/>
<path d="M2657 1073 c1 -40 5 -59 15 -61 10 -2 12 10 8 54 -7 76 -25 81 -23 7z"/>
<path d="M2730 1110 c-11 -11 -20 -31 -20 -43 0 -46 62 -75 90 -42 15 18 7 19
-19 3 -26 -16 -51 5 -51 43 0 38 37 60 57 33 7 -9 16 -14 20 -10 9 9 -24 36
-44 36 -7 0 -22 -9 -33 -20z"/>
<path d="M2920 1082 c8 -65 13 -70 65 -70 32 1 43 4 35 12 -5 5 -10 32 -10 58
0 26 -4 48 -9 48 -5 0 -6 -19 -4 -43 4 -31 1 -46 -11 -56 -29 -24 -46 -6 -46
49 0 35 -4 50 -13 50 -10 0 -12 -12 -7 -48z"/>
<path d="M3058 1118 c16 -16 16 -95 0 -101 -7 -3 0 -6 17 -6 22 -1 26 2 17 11
-22 22 -12 88 14 88 8 0 14 5 14 10 0 7 -6 7 -20 0 -14 -7 -20 -7 -20 0 0 5
-8 10 -17 10 -13 0 -14 -3 -5 -12z"/>
<path d="M3172 1114 c-24 -16 -29 -53 -12 -85 11 -20 64 -27 74 -10 3 5 -9 8
-27 7 -26 -1 -33 3 -35 22 -3 19 1 22 32 22 29 0 36 4 36 20 0 10 -9 24 -19
30 -25 13 -22 13 -49 -6z m46 -6 c19 -19 14 -28 -18 -28 -16 0 -30 4 -30 8 0
9 21 32 30 32 3 0 11 -5 18 -12z"/>
</g>
</svg>
