<svg xmlns="http://www.w3.org/2000/svg" xmlns:xlink="http://www.w3.org/1999/xlink" version="1.1" width="300.056pt" height="107.787pt" viewBox="0 0 300.056 107.787">
<defs>
<clipPath id="clip_0">
<path transform="matrix(1,0,0,-1,0,107.787)" d="M0 0H300.056V107.787H0Z"/>
</clipPath>
<clipPath id="clip_1">
<path transform="matrix(1,0,0,-1,0,107.787)" d="M17.007 16.98H85.037998V90.77901H17.007Z"/>
</clipPath>
<clipPath id="clip_2">
<path transform="matrix(1,0,0,-1,0,107.787)" d="M0 0H300.056V107.787H0Z"/>
</clipPath>
</defs>
<g id="layer_1" data-name="Warstwa 1">
<g clip-path="url(#clip_0)">
<path transform="matrix(1,0,0,-1,102.083,37.1425)" d="M0 0C.081-.204 .159-.409 .236-.615 .312-.401 .393-.196 .477 0 .562 .195 .657 .393 .765 .592L6.342 10.724C6.441 10.9 6.545 11.007 6.652 11.045 6.76 11.084 6.913 11.103 7.112 11.103H8.757V-5.376H6.802V6.733C6.802 6.894 6.806 7.066 6.813 7.25 6.821 7.435 6.833 7.622 6.848 7.814L1.202-2.49C1.01-2.835 .742-3.007 .396-3.007H.075C-.271-3.007-.539-2.835-.73-2.49L-6.503 7.849C-6.48 7.649-6.463 7.454-6.452 7.262-6.44 7.07-6.434 6.894-6.434 6.733V-5.376H-8.389V11.103H-6.745C-6.545 11.103-6.392 11.084-6.285 11.045-6.177 11.007-6.074 10.9-5.974 10.724L-.282 .581C-.175 .396-.081 .203 0 0" fill="#231f20"/>
<path transform="matrix(1,0,0,-1,0,107.787)" d="M116.647 65.268H114.600009V76.917H116.647ZM117.107 80.575C117.107 80.375 117.067 80.189 116.986 80.017 116.906 79.844 116.799 79.691 116.665 79.557 116.53 79.422 116.375 79.317 116.199 79.241 116.022 79.164 115.834 79.125 115.635 79.125 115.436 79.125 115.25 79.164 115.078 79.241 114.905 79.317 114.751 79.422 114.618 79.557 114.483 79.691 114.378 79.844 114.301 80.017 114.225 80.189 114.187 80.375 114.187 80.575 114.187 80.774 114.225 80.963 114.301 81.144 114.378 81.324 114.483 81.481 114.618 81.615 114.751 81.75 114.905 81.855 115.078 81.932 115.25 82.008 115.436 82.046 115.635 82.046 115.834 82.046 116.022 82.008 116.199 81.932 116.375 81.855 116.53 81.75 116.665 81.615 116.799 81.481 116.906 81.324 116.986 81.144 117.067 80.963 117.107 80.774 117.107 80.575" fill="#231f20"/>
<path transform="matrix(1,0,0,-1,120.2583,42.518907)" d="M0 0V11.649H1.219C1.51 11.649 1.694 11.507 1.771 11.224L1.932 9.959C2.438 10.519 3.003 10.971 3.628 11.316 4.253 11.661 4.975 11.833 5.795 11.833 6.432 11.833 6.994 11.728 7.48 11.517 7.967 11.306 8.374 11.007 8.699 10.62 9.025 10.233 9.272 9.767 9.441 9.223 9.609 8.679 9.694 8.077 9.694 7.417V0H7.647V7.417C7.647 8.299 7.446 8.983 7.043 9.47 6.641 9.957 6.025 10.201 5.198 10.201 4.592 10.201 4.026 10.055 3.501 9.764 2.976 9.472 2.491 9.077 2.047 8.579V0Z" fill="#231f20"/>
<path transform="matrix(1,0,0,-1,0,107.787)" d="M135.323 65.268H133.276V76.917H135.323ZM135.783 80.575C135.783 80.375 135.742 80.189 135.662 80.017 135.582 79.844 135.474 79.691 135.34 79.557 135.206 79.422 135.05 79.317 134.874 79.241 134.698 79.164 134.51 79.125 134.311 79.125 134.111 79.125 133.925 79.164 133.753 79.241 133.581 79.317 133.427 79.422 133.293 79.557 133.159 79.691 133.053 79.844 132.977 80.017 132.9 80.189 132.862 80.375 132.862 80.575 132.862 80.774 132.9 80.963 132.977 81.144 133.053 81.324 133.159 81.481 133.293 81.615 133.427 81.75 133.581 81.855 133.753 81.932 133.925 82.008 134.111 82.046 134.311 82.046 134.51 82.046 134.698 82.008 134.874 81.932 135.05 81.855 135.206 81.75 135.34 81.615 135.474 81.481 135.582 81.324 135.662 81.144 135.742 80.963 135.783 80.774 135.783 80.575" fill="#231f20"/>
<path transform="matrix(1,0,0,-1,145.6035,32.7899)" d="M0 0C-.092-.169-.234-.253-.425-.253-.541-.253-.671-.211-.816-.126-.962-.042-1.14 .052-1.351 .155-1.562 .259-1.813 .354-2.104 .443-2.396 .531-2.741 .575-3.139 .575-3.484 .575-3.795 .531-4.071 .443-4.347 .354-4.583 .234-4.778 .081-4.974-.073-5.123-.251-5.227-.454-5.33-.658-5.382-.878-5.382-1.116-5.382-1.415-5.295-1.664-5.123-1.863-4.951-2.063-4.723-2.235-4.438-2.38-4.155-2.526-3.833-2.655-3.473-2.766-3.112-2.877-2.743-2.996-2.363-3.122-1.983-3.249-1.614-3.389-1.253-3.542-.893-3.695-.571-3.887-.287-4.117-.004-4.347 .225-4.629 .397-4.962 .569-5.296 .656-5.696 .656-6.164 .656-6.701 .56-7.197 .368-7.653 .176-8.109-.107-8.504-.483-8.838-.858-9.171-1.318-9.434-1.863-9.625-2.407-9.817-3.036-9.913-3.749-9.913-4.562-9.913-5.297-9.781-5.957-9.516-6.616-9.252-7.176-8.913-7.636-8.499L-7.153-7.716C-7.091-7.617-7.019-7.54-6.934-7.486-6.85-7.433-6.739-7.406-6.601-7.406-6.463-7.406-6.317-7.46-6.164-7.567-6.01-7.674-5.824-7.793-5.606-7.923-5.387-8.054-5.123-8.173-4.812-8.28-4.502-8.388-4.113-8.441-3.645-8.441-3.247-8.441-2.898-8.389-2.599-8.286-2.3-8.182-2.051-8.042-1.851-7.866-1.652-7.69-1.504-7.486-1.409-7.256-1.313-7.026-1.265-6.781-1.265-6.521-1.265-6.199-1.351-5.932-1.523-5.721-1.696-5.51-1.924-5.33-2.208-5.181-2.492-5.031-2.815-4.901-3.18-4.79-3.544-4.679-3.916-4.562-4.295-4.439-4.674-4.316-5.046-4.176-5.411-4.019-5.775-3.862-6.099-3.665-6.382-3.427-6.666-3.189-6.894-2.896-7.066-2.547-7.239-2.198-7.325-1.775-7.325-1.276-7.325-.832-7.233-.404-7.049 .006-6.865 .416-6.597 .776-6.244 1.087-5.892 1.397-5.458 1.645-4.945 1.829-4.431 2.013-3.845 2.104-3.185 2.104-2.419 2.104-1.73 1.984-1.121 1.742-.512 1.501 .016 1.169 .46 .748Z" fill="#231f20"/>
<path transform="matrix(1,0,0,-1,152.4453,42.703004)" d="M0 0C-.92 0-1.627 .257-2.121 .771-2.616 1.284-2.863 2.024-2.863 2.99V10.12H-4.266C-4.389 10.12-4.492 10.156-4.577 10.229-4.661 10.302-4.703 10.415-4.703 10.568V11.385L-2.794 11.626-2.322 15.226C-2.307 15.341-2.258 15.435-2.173 15.508-2.089 15.581-1.981 15.617-1.851 15.617H-.816V11.604H2.519V10.12H-.816V3.128C-.816 2.637-.697 2.273-.46 2.036-.222 1.798 .085 1.679 .46 1.679 .675 1.679 .861 1.708 1.019 1.765 1.175 1.823 1.312 1.886 1.427 1.955 1.541 2.024 1.639 2.087 1.72 2.145 1.8 2.202 1.871 2.231 1.933 2.231 2.04 2.231 2.136 2.166 2.22 2.036L2.817 1.058C2.465 .729 2.04 .47 1.541 .282 1.043 .094 .529 0 0 0" fill="#231f20"/>
<path transform="matrix(1,0,0,-1,162.1045,32.191804)" d="M0 0C-.988 0-1.767-.286-2.334-.857-2.901-1.428-3.254-2.22-3.392-3.231H2.944C2.944-2.756 2.879-2.321 2.749-1.926 2.618-1.532 2.427-1.19 2.174-.903 1.921-.615 1.612-.393 1.248-.236 .884-.079 .468 0 0 0M-.046 1.506C.652 1.506 1.296 1.389 1.887 1.156 2.477 .922 2.986 .584 3.416 .144 3.845-.297 4.181-.842 4.422-1.489 4.664-2.137 4.784-2.875 4.784-3.703 4.784-4.025 4.75-4.24 4.681-4.347 4.612-4.455 4.481-4.508 4.29-4.508H-3.461C-3.445-5.244-3.346-5.884-3.162-6.429-2.978-6.973-2.725-7.427-2.403-7.792-2.081-8.156-1.698-8.428-1.253-8.608-.809-8.788-.311-8.878 .242-8.878 .756-8.878 1.198-8.819 1.57-8.7 1.942-8.581 2.262-8.453 2.53-8.314 2.799-8.177 3.022-8.048 3.203-7.929 3.383-7.811 3.538-7.751 3.669-7.751 3.837-7.751 3.968-7.816 4.06-7.947L4.635-8.694C4.382-9.001 4.079-9.268 3.727-9.493 3.374-9.72 2.996-9.906 2.594-10.051 2.191-10.197 1.775-10.306 1.346-10.379 .916-10.452 .491-10.488 .069-10.488-.735-10.488-1.478-10.352-2.156-10.08-2.834-9.808-3.421-9.409-3.915-8.884-4.41-8.359-4.795-7.709-5.071-6.935-5.347-6.16-5.485-5.271-5.485-4.267-5.485-3.454-5.36-2.695-5.111-1.99-4.862-1.284-4.504-.673-4.036-.155-3.568 .362-2.997 .769-2.322 1.063-1.648 1.359-.889 1.506-.046 1.506" fill="#231f20"/>
<path transform="matrix(1,0,0,-1,169.499,42.518907)" d="M0 0V11.649H1.173C1.396 11.649 1.549 11.607 1.633 11.523 1.718 11.438 1.775 11.293 1.806 11.086L1.943 9.269C2.342 10.082 2.835 10.716 3.422 11.172 4.008 11.628 4.696 11.856 5.485 11.856 5.808 11.856 6.099 11.82 6.359 11.747 6.62 11.674 6.861 11.573 7.084 11.442L6.819 9.913C6.766 9.721 6.647 9.625 6.463 9.625 6.355 9.625 6.19 9.662 5.969 9.735 5.746 9.808 5.436 9.844 5.037 9.844 4.324 9.844 3.728 9.637 3.249 9.223 2.77 8.809 2.369 8.207 2.047 7.417V0Z" fill="#231f20"/>
<path transform="matrix(1,0,0,-1,187.4609,41.081407)" d="M0 0C1.15 0 2.009 .385 2.576 1.156 3.144 1.926 3.427 3.001 3.427 4.381 3.427 5.769 3.144 6.85 2.576 7.625 2.009 8.399 1.15 8.786 0 8.786-.582 8.786-1.089 8.686-1.518 8.487-1.947 8.288-2.306 8-2.593 7.625-2.881 7.249-3.095 6.787-3.237 6.239-3.379 5.69-3.449 5.071-3.449 4.381-3.449 3.691-3.379 3.074-3.237 2.53-3.095 1.985-2.881 1.527-2.593 1.156-2.306 .784-1.947 .498-1.518 .299-1.089 .1-.582 0 0 0M0 10.396C.852 10.396 1.62 10.254 2.306 9.971 2.992 9.687 3.575 9.284 4.054 8.763 4.533 8.242 4.901 7.611 5.158 6.871 5.415 6.131 5.543 5.305 5.543 4.393 5.543 3.473 5.415 2.645 5.158 1.909 4.901 1.173 4.533 .544 4.054 .023 3.575-.499 2.992-.899 2.306-1.179 1.62-1.458 .852-1.599 0-1.599-.851-1.599-1.619-1.458-2.306-1.179-2.991-.899-3.576-.499-4.06 .023-4.542 .544-4.914 1.173-5.175 1.909-5.436 2.645-5.565 3.473-5.565 4.393-5.565 5.305-5.436 6.131-5.175 6.871-4.914 7.611-4.542 8.242-4.06 8.763-3.576 9.284-2.991 9.687-2.306 9.971-1.619 10.254-.851 10.396 0 10.396" fill="#231f20"/>
<path transform="matrix(1,0,0,-1,195.7637,42.518907)" d="M0 0V9.901L-1.288 10.051C-1.448 10.089-1.581 10.149-1.685 10.229-1.788 10.31-1.84 10.427-1.84 10.58V11.419H0V12.546C0 13.213 .094 13.806 .282 14.323 .47 14.841 .738 15.278 1.087 15.634 1.436 15.991 1.855 16.261 2.347 16.445 2.837 16.629 3.389 16.721 4.002 16.721 4.523 16.721 5.007 16.644 5.451 16.491L5.405 15.467C5.397 15.314 5.332 15.222 5.21 15.191 5.087 15.161 4.914 15.146 4.692 15.146H4.336C3.983 15.146 3.663 15.1 3.375 15.007 3.088 14.916 2.841 14.766 2.634 14.559 2.427 14.352 2.268 14.08 2.156 13.743 2.045 13.405 1.989 12.987 1.989 12.489V11.419H5.359V9.936H2.059V0Z" fill="#231f20"/>
<path transform="matrix(1,0,0,-1,215.8418,28.6156)" d="M0 0C-.068-.115-.142-.201-.218-.259-.295-.316-.395-.345-.518-.345-.647-.345-.799-.28-.972-.149-1.144-.019-1.362 .125-1.627 .282-1.892 .439-2.21 .583-2.581 .713-2.953 .843-3.403 .909-3.933 .909-4.431 .909-4.872 .841-5.255 .708-5.639 .573-5.958 .391-6.215 .161-6.473-.069-6.666-.339-6.796-.649-6.927-.96-6.991-1.295-6.991-1.656-6.991-2.116-6.879-2.497-6.652-2.8-6.426-3.103-6.127-3.362-5.755-3.576-5.384-3.791-4.962-3.977-4.49-4.134-4.019-4.292-3.536-4.454-3.041-4.623-2.547-4.792-2.063-4.981-1.593-5.192-1.121-5.403-.699-5.669-.327-5.991 .044-6.313 .344-6.708 .569-7.176 .796-7.644 .909-8.219 .909-8.901 .909-9.622 .786-10.298 .541-10.931 .295-11.563-.062-12.113-.534-12.581-1.006-13.048-1.585-13.417-2.271-13.685-2.957-13.953-3.737-14.087-4.611-14.087-5.677-14.087-6.648-13.894-7.526-13.506-8.404-13.12-9.153-12.596-9.774-11.937L-9.131-10.879C-9.069-10.794-8.994-10.724-8.906-10.666-8.818-10.608-8.721-10.58-8.613-10.58-8.452-10.58-8.268-10.666-8.061-10.838-7.854-11.011-7.596-11.201-7.285-11.408-6.975-11.615-6.599-11.805-6.158-11.977-5.717-12.149-5.179-12.236-4.542-12.236-4.013-12.236-3.542-12.163-3.128-12.017-2.714-11.872-2.363-11.667-2.075-11.402-1.788-11.138-1.567-10.821-1.414-10.453-1.261-10.085-1.185-9.675-1.185-9.223-1.185-8.725-1.297-8.316-1.523-7.998-1.75-7.68-2.047-7.414-2.415-7.199-2.782-6.984-3.202-6.802-3.674-6.652-4.146-6.503-4.628-6.35-5.123-6.192-5.617-6.036-6.101-5.854-6.571-5.646-7.043-5.439-7.463-5.171-7.831-4.841-8.199-4.512-8.496-4.1-8.723-3.605-8.948-3.11-9.062-2.5-9.062-1.771-9.062-1.188-8.948-.625-8.723-.08-8.496 .464-8.168 .947-7.739 1.369-7.31 1.79-6.778 2.127-6.146 2.381-5.514 2.634-4.787 2.76-3.967 2.76-3.047 2.76-2.208 2.614-1.448 2.323-.689 2.032-.026 1.61 .541 1.058Z" fill="#231f20"/>
<path transform="matrix(1,0,0,-1,227.1689,32.9393)" d="M0 0C-.062-.084-.122-.149-.184-.196-.245-.242-.333-.265-.448-.265-.563-.265-.687-.217-.822-.121-.956-.025-1.127 .081-1.334 .195-1.541 .311-1.792 .416-2.087 .512-2.382 .607-2.744 .655-3.174 .655-3.741 .655-4.243 .554-4.68 .351-5.117 .147-5.483-.146-5.778-.529-6.073-.913-6.296-1.376-6.445-1.92-6.595-2.465-6.67-3.075-6.67-3.749-6.67-4.455-6.589-5.081-6.428-5.629-6.267-6.178-6.041-6.638-5.75-7.009-5.458-7.381-5.104-7.665-4.686-7.86-4.269-8.056-3.799-8.154-3.277-8.154-2.779-8.154-2.369-8.094-2.047-7.975-1.725-7.856-1.456-7.724-1.241-7.579-1.027-7.433-.851-7.301-.713-7.182-.574-7.063-.437-7.003-.299-7.003-.122-7.003 .008-7.069 .093-7.199L.667-7.947C.161-8.567-.472-9.022-1.23-9.31-1.989-9.597-2.79-9.741-3.634-9.741-4.362-9.741-5.039-9.606-5.663-9.338-6.288-9.07-6.83-8.681-7.291-8.171-7.751-7.661-8.112-7.034-8.377-6.291-8.642-5.547-8.774-4.7-8.774-3.749-8.774-2.883-8.653-2.082-8.412-1.346-8.17-.609-7.817 .025-7.354 .558-6.89 1.09-6.317 1.506-5.635 1.805-4.952 2.104-4.17 2.254-3.289 2.254-2.477 2.254-1.756 2.122-1.127 1.857-.498 1.593 .058 1.219 .541 .736Z" fill="#231f20"/>
<path transform="matrix(1,0,0,-1,0,107.787)" d="M232.241 65.268H230.194V76.917H232.241ZM232.701 80.575C232.701 80.375 232.661 80.189 232.58 80.017 232.5 79.844 232.393 79.691 232.259 79.557 232.124 79.422 231.969 79.317 231.793 79.241 231.616 79.164 231.429 79.125 231.229 79.125 231.029 79.125 230.844 79.164 230.671 79.241 230.499 79.317 230.346 79.422 230.211 79.557 230.077 79.691 229.972 79.844 229.896 80.017 229.818 80.189 229.78 80.375 229.78 80.575 229.78 80.774 229.818 80.963 229.896 81.144 229.972 81.324 230.077 81.481 230.211 81.615 230.346 81.75 230.499 81.855 230.671 81.932 230.844 82.008 231.029 82.046 231.229 82.046 231.429 82.046 231.616 82.008 231.793 81.932 231.969 81.855 232.124 81.75 232.259 81.615 232.393 81.481 232.5 81.324 232.58 81.144 232.661 80.963 232.701 80.774 232.701 80.575" fill="#231f20"/>
<path transform="matrix(1,0,0,-1,240.5088,32.191804)" d="M0 0C-.988 0-1.767-.286-2.334-.857-2.901-1.428-3.254-2.22-3.392-3.231H2.944C2.944-2.756 2.879-2.321 2.749-1.926 2.618-1.532 2.427-1.19 2.174-.903 1.921-.615 1.612-.393 1.248-.236 .884-.079 .468 0 0 0M-.046 1.506C.652 1.506 1.296 1.389 1.887 1.156 2.477 .922 2.986 .584 3.416 .144 3.845-.297 4.181-.842 4.422-1.489 4.664-2.137 4.784-2.875 4.784-3.703 4.784-4.025 4.75-4.24 4.681-4.347 4.612-4.455 4.481-4.508 4.29-4.508H-3.461C-3.445-5.244-3.346-5.884-3.162-6.429-2.978-6.973-2.725-7.427-2.403-7.792-2.081-8.156-1.698-8.428-1.253-8.608-.809-8.788-.311-8.878 .242-8.878 .756-8.878 1.198-8.819 1.57-8.7 1.942-8.581 2.262-8.453 2.53-8.314 2.799-8.177 3.022-8.048 3.203-7.929 3.383-7.811 3.538-7.751 3.669-7.751 3.837-7.751 3.968-7.816 4.06-7.947L4.635-8.694C4.382-9.001 4.079-9.268 3.727-9.493 3.374-9.72 2.996-9.906 2.594-10.051 2.191-10.197 1.775-10.306 1.346-10.379 .916-10.452 .491-10.488 .069-10.488-.735-10.488-1.478-10.352-2.156-10.08-2.834-9.808-3.421-9.409-3.915-8.884-4.41-8.359-4.795-7.709-5.071-6.935-5.347-6.16-5.485-5.271-5.485-4.267-5.485-3.454-5.36-2.695-5.111-1.99-4.862-1.284-4.504-.673-4.036-.155-3.568 .362-2.997 .769-2.322 1.063-1.648 1.359-.889 1.506-.046 1.506" fill="#231f20"/>
<path transform="matrix(1,0,0,-1,247.9033,42.518907)" d="M0 0V11.649H1.219C1.511 11.649 1.694 11.507 1.771 11.224L1.933 9.959C2.438 10.519 3.004 10.971 3.629 11.316 4.253 11.661 4.976 11.833 5.796 11.833 6.433 11.833 6.994 11.728 7.48 11.517 7.968 11.306 8.374 11.007 8.7 10.62 9.025 10.233 9.272 9.767 9.441 9.223 9.61 8.679 9.694 8.077 9.694 7.417V0H7.647V7.417C7.647 8.299 7.446 8.983 7.044 9.47 6.642 9.957 6.026 10.201 5.198 10.201 4.593 10.201 4.027 10.055 3.502 9.764 2.977 9.472 2.492 9.077 2.047 8.579V0Z" fill="#231f20"/>
<path transform="matrix(1,0,0,-1,268.6367,32.9393)" d="M0 0C-.062-.084-.122-.149-.184-.196-.245-.242-.333-.265-.448-.265-.563-.265-.687-.217-.822-.121-.956-.025-1.127 .081-1.334 .195-1.541 .311-1.792 .416-2.087 .512-2.382 .607-2.744 .655-3.174 .655-3.741 .655-4.243 .554-4.68 .351-5.117 .147-5.483-.146-5.778-.529-6.073-.913-6.296-1.376-6.445-1.92-6.595-2.465-6.67-3.075-6.67-3.749-6.67-4.455-6.589-5.081-6.428-5.629-6.267-6.178-6.041-6.638-5.75-7.009-5.458-7.381-5.104-7.665-4.686-7.86-4.269-8.056-3.799-8.154-3.277-8.154-2.779-8.154-2.369-8.094-2.047-7.975-1.725-7.856-1.456-7.724-1.241-7.579-1.027-7.433-.851-7.301-.713-7.182-.574-7.063-.437-7.003-.299-7.003-.122-7.003 .008-7.069 .093-7.199L.667-7.947C.161-8.567-.472-9.022-1.23-9.31-1.989-9.597-2.79-9.741-3.634-9.741-4.362-9.741-5.039-9.606-5.663-9.338-6.288-9.07-6.83-8.681-7.291-8.171-7.751-7.661-8.112-7.034-8.377-6.291-8.642-5.547-8.774-4.7-8.774-3.749-8.774-2.883-8.653-2.082-8.412-1.346-8.17-.609-7.817 .025-7.354 .558-6.89 1.09-6.317 1.506-5.635 1.805-4.952 2.104-4.17 2.254-3.289 2.254-2.477 2.254-1.756 2.122-1.127 1.857-.498 1.593 .058 1.219 .541 .736Z" fill="#231f20"/>
<path transform="matrix(1,0,0,-1,275.8818,32.191804)" d="M0 0C-.988 0-1.767-.286-2.334-.857-2.901-1.428-3.254-2.22-3.392-3.231H2.944C2.944-2.756 2.879-2.321 2.749-1.926 2.618-1.532 2.427-1.19 2.174-.903 1.921-.615 1.612-.393 1.248-.236 .884-.079 .468 0 0 0M-.046 1.506C.652 1.506 1.296 1.389 1.887 1.156 2.477 .922 2.986 .584 3.416 .144 3.845-.297 4.181-.842 4.422-1.489 4.664-2.137 4.784-2.875 4.784-3.703 4.784-4.025 4.75-4.24 4.681-4.347 4.612-4.455 4.481-4.508 4.29-4.508H-3.461C-3.445-5.244-3.346-5.884-3.162-6.429-2.978-6.973-2.725-7.427-2.403-7.792-2.081-8.156-1.698-8.428-1.253-8.608-.809-8.788-.311-8.878 .242-8.878 .756-8.878 1.198-8.819 1.57-8.7 1.942-8.581 2.262-8.453 2.53-8.314 2.799-8.177 3.022-8.048 3.203-7.929 3.383-7.811 3.538-7.751 3.669-7.751 3.837-7.751 3.968-7.816 4.06-7.947L4.635-8.694C4.382-9.001 4.079-9.268 3.727-9.493 3.374-9.72 2.996-9.906 2.594-10.051 2.191-10.197 1.775-10.306 1.346-10.379 .916-10.452 .491-10.488 .069-10.488-.735-10.488-1.478-10.352-2.156-10.08-2.834-9.808-3.421-9.409-3.915-8.884-4.41-8.359-4.795-7.709-5.071-6.935-5.347-6.16-5.485-5.271-5.485-4.267-5.485-3.454-5.36-2.695-5.111-1.99-4.862-1.284-4.504-.673-4.036-.155-3.568 .362-2.997 .769-2.322 1.063-1.648 1.359-.889 1.506-.046 1.506" fill="#231f20"/>
</g>
<g clip-path="url(#clip_1)">
<path transform="matrix(1,0,0,-1,53.3603,23.171906)" d="M0 0C-.197-.057-.451-.011-.638 .097-.991 .311-.606 1.331 .085 1.756 .569 .986 .44 .13 0 0M4.549-58.667C5.13-58.667 5.639-58.588 6.079-58.428 6.064-58.626 5.928-59.036 5.609-59.396 5.398-59.638 5.044-59.923 4.549-59.923 3.536-59.923 2.304-58.898 1.179-57.563 1.99-58.077 3.322-58.667 4.549-58.667M-9.229-59.923C-9.723-59.923-10.077-59.638-10.289-59.396-10.61-59.036-10.743-58.626-10.76-58.428-10.321-58.588-9.81-58.667-9.229-58.667-8.004-58.667-6.67-58.074-5.858-57.563-6.984-58.898-8.218-59.923-9.229-59.923M-4.046 .097C-4.23-.011-4.484-.057-4.68 0-5.121 .13-5.25 .986-4.771 1.756-4.076 1.331-3.69 .311-4.046 .097M25.522-27.062C26.2-27.16 26.875-27.215 27.549-27.215 28.999-27.215 30.188-26.97 30.815-26.741L31.216-26.595 31.057-26.199C30.56-24.983 29.183-23.705 27.034-22.455 27.828-22.324 28.497-22.139 29.05-21.9 30.129-21.432 30.773-20.739 30.968-19.842 31.012-19.634 31.028-19.093 31.028-19.093 31.028-19.093 30.574-19.291 30.385-19.382 29.972-19.583 28.534-19.796 25.736-19.796 25.497-19.796 25.255-19.793 25.012-19.79 26.233-19.544 27.247-19.252 28.108-18.898 29.514-18.318 30.388-17.622 31.234-16.951 31.357-16.851 31.678-16.557 31.678-16.557 31.678-16.557 31.308-16.334 31.168-16.262 30.209-15.76 29.01-15.253 27.186-14.874 27.672-14.585 28.085-14.308 28.441-14.026 29.143-13.473 30.046-12.592 29.799-11.321 29.769-11.165 29.614-10.749 29.614-10.749 29.614-10.749 29.285-10.973 29.153-11.065 28.713-11.379 27.488-11.997 24.352-13.201 25.962-12.187 27.976-10.635 28.781-8.889 28.829-8.779 28.968-8.435 28.968-8.435 28.968-8.435 28.108-8.169 27.179-8.169 26.581-8.169 25.883-8.236 25.084-8.368 25.229-8.202 25.359-8.045 25.475-7.893 26.285-6.816 26.462-5.868 26.03-4.905 25.955-4.74 25.649-4.412 25.649-4.412 25.649-4.412 25.418-4.694 25.314-4.842 24.971-5.339 24.218-5.965 23.113-6.745 24.029-5.663 24.612-4.499 24.874-3.025 24.895-2.913 24.941-2.575 24.941-2.575 24.941-2.575 24.538-2.519 24.168-2.519 22.895-2.519 21.365-2.923 19.883-3.634 20.842-2.622 21.748-1.168 22.084-.029 22.127 .115 22.206 .506 22.206 .506 22.206 .506 21.847 .514 21.656 .498 19.362 .303 16.949-.456 14.493-1.777 12.35-2.924 10.63-4.252 9.566-5.16 6.606-7.683 5.019-11.025 5.526-13.678 5.735-14.755 6.369-16.142 8.133-17.13L8.169-17.406C8.267-18.229 8.136-19.057 7.826-19.519 7.172-20.499 5.887-20.675 4.551-20.698L4.466-20.513C3.551-18.481 2.957-16.148 2.863-14.986L2.856-14.908C2.989-14.846 3.109-14.769 3.217-14.677L3.433-14.496 3.337-14.228C3.003-13.27 3.224-11.775 3.437-10.332 3.712-8.479 3.995-6.571 3.236-5.315 3.536-5.139 3.783-4.893 3.944-4.598 4.24-4.05 4.206-3.423 3.848-2.872L3.625-2.524 3.281-2.75C3.245-2.772 3.208-2.795 3.172-2.817 3.193-2.754 3.204-2.7 3.212-2.652 3.301-2.15 3.049-1.609 2.6-1.341L2.392-1.217 2.177-1.341C2.015-1.441 1.812-1.515 1.571-1.57 2.022-.498 2.731 .552 3.379 1.504 3.803 2.127 4.203 2.715 4.508 3.272L4.927 4.029C4.927 4.029 4.148 3.785 3.391 3.785 2.773 3.744 2.077 3.698 1.729 3.231 1.699 3.193 1.676 3.149 1.656 3.109 1.513 3.179 1.35 3.219 1.18 3.219 .912 3.219 .651 3.12 .429 2.936 .318 3.466-.283 3.854-.978 3.854-.996 4.492-1.455 5.046-1.765 5.416-1.858 5.529-2.341 6.164-2.341 6.164-2.341 6.164-2.821 5.529-2.916 5.416-3.225 5.046-3.685 4.492-3.703 3.854-4.4 3.854-4.999 3.466-5.11 2.937-5.332 3.12-5.593 3.219-5.862 3.219-6.031 3.219-6.193 3.179-6.339 3.109-6.359 3.149-6.38 3.193-6.409 3.231-6.755 3.698-7.453 3.744-8.069 3.785-8.831 3.785-9.608 4.029-9.608 4.029L-9.191 3.272C-8.884 2.715-8.483 2.127-8.062 1.504-7.349 .454-6.559-.705-6.127-1.889-6.334-2.095-6.417-2.34-6.436-2.571H-6.767C-8.309-2.571-8.876-3.385-9.076-3.867-9.489-4.862-9.113-6.101-8.662-6.551L-8.319-6.897-8.036-6.501C-7.827-6.207-7.512-6.149-7.288-6.149-6.968-6.149-6.627-6.269-6.375-6.472L-6.227-6.59-6.042-6.554C-5.858-6.518-5.679-6.502-5.497-6.502-5.023-6.502-4.576-6.631-4.237-6.862-4.345-6.832-4.465-6.811-4.592-6.799-4.731-6.785-4.871-6.777-5.004-6.777-6.019-6.777-6.767-7.153-7.427-7.482-7.575-7.557-7.713-7.626-7.847-7.689-7.954-7.738-8.082-7.76-8.236-7.76-8.669-7.76-9.107-7.562-9.113-7.558L-9.55-7.352-9.683-7.82C-9.794-8.205-9.729-8.584-9.506-8.882-9.241-9.233-8.767-9.436-8.21-9.436-7.996-9.436-7.773-9.406-7.543-9.351-7.102-9.243-6.761-9.078-6.462-8.921-6.457-9.112-6.41-9.25-6.403-9.277L-6.246-9.691-5.847-9.508C-5.84-9.506-5.221-9.232-4.665-9.232-4.607-9.232-4.551-9.233-4.499-9.241-4.413-9.25-4.326-9.266-4.23-9.281L-4.173-9.332C-3.781-9.678-3.619-10.094-3.672-10.601-3.807-11.897-5.332-13.436-6.334-14.007L-6.718-14.223-6.473-14.592C-6.38-14.732-6.266-14.857-6.138-14.967-7.581-16.366-8.065-17.709-8.452-18.792-8.676-19.409-8.869-19.94-9.187-20.393L-9.398-20.697C-10.671-20.657-11.882-20.459-12.507-19.519-12.815-19.057-12.95-18.229-12.849-17.406L-12.815-17.13C-11.05-16.142-10.415-14.755-10.209-13.678-9.702-11.025-11.287-7.683-14.246-5.16-15.31-4.252-17.031-2.924-19.174-1.777-21.631-.456-24.042 .303-26.337 .498-26.526 .514-26.888 .506-26.888 .506-26.888 .506-26.808 .115-26.767-.029-26.429-1.168-25.523-2.622-24.564-3.634-26.046-2.923-27.576-2.519-28.851-2.519-29.22-2.519-29.624-2.575-29.624-2.575-29.624-2.575-29.576-2.913-29.557-3.025-29.294-4.499-28.708-5.663-27.794-6.745-28.9-5.965-29.653-5.339-29.996-4.842-30.1-4.694-30.331-4.412-30.331-4.412-30.331-4.412-30.636-4.74-30.711-4.905-31.141-5.868-30.968-6.816-30.155-7.893-30.041-8.045-29.91-8.202-29.765-8.368-30.566-8.236-31.261-8.169-31.859-8.169-32.789-8.169-33.653-8.435-33.653-8.435-33.653-8.435-33.512-8.779-33.46-8.889-32.658-10.635-30.643-12.187-29.037-13.201-32.17-11.997-33.396-11.379-33.838-11.065-33.968-10.973-34.295-10.749-34.295-10.749-34.295-10.749-34.45-11.165-34.482-11.321-34.73-12.592-33.824-13.473-33.122-14.026-32.768-14.308-32.355-14.585-31.867-14.874-33.692-15.253-34.894-15.76-35.849-16.262-35.99-16.334-36.359-16.557-36.359-16.557-36.359-16.557-36.039-16.851-35.915-16.951-35.07-17.622-34.196-18.318-32.789-18.898-31.928-19.252-30.913-19.544-29.69-19.79-29.935-19.793-30.18-19.796-30.419-19.796-33.215-19.796-34.653-19.583-35.065-19.382-35.255-19.291-35.709-19.093-35.709-19.093-35.709-19.093-35.693-19.634-35.647-19.842-35.453-20.739-34.81-21.432-33.732-21.9-33.177-22.139-32.509-22.324-31.715-22.455-33.861-23.705-35.244-24.983-35.738-26.199L-35.899-26.595-35.498-26.741C-34.87-26.97-33.681-27.215-32.23-27.215-31.556-27.215-30.879-27.16-30.205-27.062-32.399-28.568-34.17-29.427-35.207-29.469L-36.284-29.511-35.451-30.196C-34.668-30.846-33.713-31.173-32.614-31.173-31.49-31.173-30.198-30.838-28.707-30.164-29.448-31.163-30.096-32.211-30.639-33.317-31.84-35.753-32.267-37.876-32.414-39.228L-32.479-39.833-31.895-39.67C-28.804-38.819-26.494-37.613-23.783-34.189-25.586-37.679-27.751-41.813-28.952-42.406L-30.141-42.99-28.83-43.187C-28.471-43.237-28.148-43.262-27.842-43.262-26.681-43.262-25.727-42.874-24.842-42.037-23.897-41.145-22.994-39.721-22.002-37.552-21.951-37.437-21.883-37.273-21.803-37.072-21.875-37.408-21.939-37.748-22.002-38.088-22.628-41.503-22.645-43.965-22.053-45.601L-21.861-46.139-21.411-45.78C-19.687-44.42-18.378-42.733-17.409-40.639-17.526-41.216-17.629-41.697-17.708-42.017L-17.905-42.82-17.145-42.492C-16.01-42.004-14.466-40.42-13.359-35.736-13.187-36.111-13.014-36.411-12.858-36.624L-12.604-36.975-12.265-36.698C-11.761-36.291-11.144-35.414-10.656-34.404-10.303-33.68-9.88-32.606-9.628-31.274-9.482-31.295-9.329-31.307-9.175-31.307-8.062-31.307-7.13-30.89-6.501-30.15-6.365-30.635-6.254-31.03-6.208-31.192-6.339-31.185-6.464-31.18-6.587-31.18-9.167-31.18-9.727-32.799-10.098-33.87-10.849-36.043-12.836-38.103-13.466-38.521-13.631-38.631-14.03-38.905-14.03-38.905-14.03-38.905-13.886-39.131-13.458-39.237-13.97-40.092-15.336-41.165-15.336-41.165-15.336-41.165-15.072-41.376-14.593-41.45-15.756-42.426-16.687-42.781-16.687-42.781-16.687-42.781-16.378-43.082-15.822-43.267-16.535-43.977-17.54-44.598-17.54-44.598-17.54-44.598-17.227-44.859-16.98-44.974-16.229-45.312-15.479-45.507-14.621-45.545-15.078-46.008-15.498-46.428-15.799-46.688L-16.252-47.071C-16.252-47.071-16.127-47.223-15.9-47.269-16.11-47.483-16.738-48.043-17.091-48.327L-17.547-48.698C-17.547-48.698-17.418-48.823-17.228-48.891-17.54-49.283-18.254-49.828-18.494-50.008L-19.014-50.394C-19.014-50.394-18.851-50.527-18.68-50.572-18.943-50.829-19.58-51.34-19.915-51.528-20.043-51.596-20.42-51.808-20.42-51.808-20.42-51.808-20.259-52.036-20.014-52.176-20.102-52.232-20.171-52.339-20.491-52.342-20.897-52.347-21.538-52.176-22.313-51.915-22.899-51.721-23.735-51.594-24.436-51.592-24.653-51.038-25.255-50.372-26.186-50.372-26.722-50.372-27.205-50.582-27.548-50.961-27.787-51.22-27.943-51.541-28.007-51.889-28.346-51.802-28.6-52.011-28.718-52.234-28.79-52.366-28.817-52.52-28.796-52.664H-28.8C-29.195-52.99-29.414-53.432-29.409-53.906-29.404-54.473-29.093-55.034-28.556-55.453L-28.121-55.789-27.919-55.273C-27.779-54.909-27.447-54.521-27.081-54.22-26.89-54.253-26.702-54.271-26.519-54.271-25.752-54.271-25.259-53.989-24.974-53.745-24.236-54.076-23.877-54.34-23.208-54.429-23.572-54.582-23.833-54.629-23.954-54.671-24.263-54.766-24.557-54.866-24.901-55.092-25.237-54.82-25.636-54.673-26.062-54.673-26.412-54.673-26.764-54.775-27.053-54.96-27.771-55.416-28.093-56.292-27.839-57.094-27.834-57.116-27.825-57.137-27.817-57.157-27.917-57.246-27.986-57.363-28.013-57.508-28.064-57.752-27.982-58.092-27.622-58.339-27.717-58.894-27.582-59.323-27.29-59.664-26.951-60.061-26.397-60.292-25.775-60.292-25.514-60.292-25.038-60.246-25.038-60.246L-25.234-59.727C-25.37-59.363-25.38-58.952-25.325-58.504-24.754-58.24-24.313-57.698-24.176-57.109-23.232-56.994-22.502-56.598-21.658-55.843-21.658-55.843-22.041-56.427-22.231-56.748-22.286-56.839-22.344-56.93-22.403-57.032-22.453-57.028-22.499-57.028-22.548-57.028-23.305-57.028-23.913-57.408-24.214-58.073-24.513-58.733-24.435-59.516-24.023-59.984-23.989-60.025-23.952-60.063-23.912-60.098-23.996-60.205-24.045-60.342-24.042-60.495-24.04-60.762-23.874-61.062-23.518-61.187-23.451-62.086-22.768-62.689-21.814-62.689-21.257-62.689-20.577-62.422-20.577-62.422L-20.883-61.957C-21.103-61.631-21.218-61.253-21.253-60.721-20.571-60.195-20.371-59.27-20.648-58.38-20.017-57.77-19.664-57.048-19.348-56.407-19.313-56.333-19.28-56.267-19.247-56.204-18.614-56.356-17.974-56.387-17.54-56.387-17.364-56.387-17.203-56.384-17.065-56.374-16.926-56.847-16.646-57.22-16.238-57.47-16.257-57.935-16.308-58.387-16.486-58.708L-16.738-59.158C-16.738-59.158-16.072-59.372-15.674-59.372-15.149-59.372-14.68-59.19-14.358-58.867-14.077-58.581-13.926-58.154-13.919-57.716-13.474-57.589-13.325-57.236-13.332-56.961-13.338-56.79-13.4-56.633-13.499-56.516-13.16-56.071-13.135-55.38-13.396-54.81-13.693-54.162-14.364-53.74-15.123-53.715-15.515-53.702-15.858-53.855-16.137-53.982-16.35-54.073-16.532-54.157-16.706-54.157-16.738-54.157-16.77-54.157-16.798-54.147-16.873-53.879-16.915-53.491-16.58-53.119-16.009-52.491-13.531-50.387-11.54-48.694-11.126-48.342-10.75-48.022-10.415-47.736-9.981-48.483-9.342-48.97-8.488-49.178-8.26-49.238-7.904-49.267-7.904-49.267-7.904-49.267-8.095-48.241-8.036-47.521-7.748-47.668-7.448-47.745-7.448-47.745-7.448-47.745-7.414-47.345-7.396-47.211-7.194-45.198-6.755-43.049-5.096-40.886-5.294-43.258-5.79-45.248-6.539-46.629L-7.044-47.559-6.042-47.217C-5.604-47.064-5.224-46.837-4.892-46.532-5.242-48.411-6.1-50.153-7.212-50.153-7.493-50.153-7.797-50.041-8.112-49.82L-8.566-49.504-8.739-50.028C-9.074-51.025-8.819-51.688-8.545-52.067-8.169-52.586-7.519-52.898-6.804-52.898-6.237-52.898-5.732-52.772-5.29-52.575-6.296-53.822-7.929-54.953-9.229-54.953-9.55-54.953-9.683-54.838-9.755-54.749-9.987-54.467-10.003-53.892-9.921-53.476L-9.814-52.931-10.369-52.987C-10.843-53.038-11.392-53.349-11.838-53.819-12.336-54.353-12.614-54.996-12.614-55.631-12.614-56.471-12.358-57.187-11.872-57.711-11.767-57.826-11.65-57.93-11.522-58.026-12.489-58.558-13.041-59.443-13.041-60.48-13.041-61.436-12.591-62.31-11.777-62.949-11.059-63.506-10.134-63.826-9.229-63.826-7.822-63.826-6.575-63.419-5.522-62.626-4.904-62.155-4.415-61.598-4.036-61.088-3.988-63.386-3.551-65.285-2.707-66.922L-2.341-67.635-1.974-66.922C-1.129-65.285-.693-63.386-.645-61.088-.266-61.598 .224-62.155 .841-62.626 1.894-63.419 3.142-63.826 4.549-63.826 5.45-63.826 6.379-63.506 7.094-62.949 7.91-62.31 8.36-61.436 8.36-60.48 8.36-59.443 7.809-58.558 6.842-58.026 6.969-57.93 7.085-57.826 7.191-57.711 7.676-57.187 7.934-56.471 7.934-55.631 7.934-54.996 7.655-54.353 7.155-53.819 6.712-53.349 6.162-53.038 5.685-52.987 5.549-52.975 5.131-52.931 5.131-52.931L5.24-53.476C5.323-53.892 5.306-54.467 5.074-54.749 5.003-54.838 4.866-54.953 4.549-54.953 3.249-54.953 1.615-53.822 .609-52.575 1.052-52.772 1.555-52.898 2.123-52.898 2.837-52.898 3.489-52.586 3.863-52.067 4.136-51.688 4.39-51.025 4.059-50.028L3.885-49.504 3.434-49.82C3.117-50.041 2.812-50.153 2.531-50.153 1.417-50.153 .561-48.411 .211-46.532 .543-46.837 .923-47.064 1.362-47.217L2.362-47.559 1.86-46.629C1.11-45.248 .614-43.258 .411-40.886 2.074-43.049 2.512-45.198 2.716-47.211 2.729-47.345 2.769-47.745 2.769-47.745 2.769-47.745 3.068-47.668 3.356-47.521 3.414-48.241 3.223-49.267 3.223-49.267 3.223-49.267 3.576-49.238 3.804-49.178 4.661-48.97 5.299-48.483 5.735-47.736 6.068-48.022 6.445-48.342 6.86-48.694 8.851-50.387 11.328-52.491 11.899-53.119 12.233-53.491 12.192-53.879 12.118-54.147 12.087-54.157 12.054-54.157 12.026-54.157 11.849-54.157 11.667-54.073 11.454-53.982 11.178-53.855 10.833-53.702 10.444-53.715 9.683-53.74 9.01-54.162 8.716-54.81 8.454-55.38 8.479-56.071 8.819-56.516 8.718-56.633 8.658-56.79 8.65-56.961 8.642-57.236 8.793-57.589 9.237-57.716 9.245-58.154 9.397-58.581 9.678-58.867 10-59.19 10.465-59.372 10.994-59.372 11.391-59.372 12.055-59.158 12.055-59.158L11.804-58.708C11.627-58.387 11.576-57.935 11.556-57.47 11.965-57.22 12.245-56.847 12.382-56.374 12.52-56.384 12.682-56.387 12.86-56.387 13.291-56.387 13.934-56.356 14.564-56.204 14.597-56.267 14.632-56.333 14.667-56.407 14.983-57.048 15.335-57.77 15.969-58.38 15.69-59.27 15.892-60.195 16.572-60.721 16.536-61.253 16.42-61.631 16.202-61.957L15.897-62.422C15.897-62.422 16.577-62.689 17.134-62.689 18.085-62.689 18.767-62.086 18.837-61.187 19.192-61.062 19.359-60.762 19.362-60.495 19.363-60.342 19.316-60.205 19.23-60.098 19.269-60.063 19.307-60.025 19.342-59.984 19.753-59.516 19.829-58.733 19.533-58.073 19.234-57.408 18.625-57.028 17.865-57.028 17.819-57.028 17.769-57.028 17.722-57.032 17.662-56.93 17.607-56.839 17.552-56.748 17.361-56.427 16.978-55.843 16.978-55.843 17.821-56.598 18.55-56.994 19.495-57.109 19.629-57.698 20.07-58.24 20.642-58.504 20.697-58.952 20.689-59.363 20.552-59.727L20.356-60.246C20.356-60.246 20.832-60.292 21.093-60.292 21.716-60.292 22.269-60.061 22.61-59.664 22.901-59.323 23.034-58.894 22.942-58.339 23.302-58.092 23.384-57.752 23.334-57.508 23.306-57.363 23.235-57.246 23.134-57.157 23.144-57.137 23.151-57.116 23.158-57.094 23.412-56.292 23.089-55.416 22.371-54.96 22.083-54.775 21.731-54.673 21.383-54.673 20.958-54.673 20.556-54.82 20.221-55.092 19.877-54.866 19.581-54.766 19.275-54.671 19.149-54.629 18.891-54.582 18.528-54.429 19.196-54.34 19.554-54.076 20.292-53.745 20.575-53.989 21.071-54.271 21.837-54.271 22.018-54.271 22.208-54.253 22.4-54.22 22.765-54.521 23.096-54.909 23.238-55.273L23.438-55.789 23.875-55.453C24.412-55.034 24.72-54.473 24.729-53.906 24.733-53.432 24.516-52.99 24.118-52.664H24.115C24.135-52.52 24.109-52.366 24.039-52.234 23.916-52.011 23.664-51.802 23.327-51.889 23.26-51.541 23.105-51.22 22.867-50.961 22.524-50.582 22.038-50.372 21.505-50.372 20.575-50.372 19.974-51.038 19.757-51.592 19.051-51.594 18.218-51.721 17.632-51.915 16.858-52.176 16.216-52.347 15.809-52.342 15.49-52.339 15.421-52.232 15.333-52.176 15.579-52.036 15.74-51.808 15.74-51.808 15.74-51.808 15.36-51.596 15.233-51.528 14.899-51.34 14.261-50.829 13.998-50.572 14.169-50.527 14.334-50.394 14.334-50.394L13.813-50.008C13.573-49.828 12.86-49.283 12.548-48.891 12.734-48.823 12.867-48.698 12.867-48.698L12.407-48.327C12.054-48.043 11.431-47.483 11.221-47.269 11.445-47.223 11.571-47.071 11.571-47.071L11.119-46.688C10.814-46.428 10.397-46.008 9.938-45.545 10.795-45.507 11.549-45.312 12.3-44.974 12.544-44.859 12.861-44.598 12.861-44.598 12.861-44.598 11.855-43.977 11.143-43.267 11.697-43.082 12.005-42.781 12.005-42.781 12.005-42.781 11.077-42.426 9.914-41.45 10.389-41.376 10.655-41.165 10.655-41.165 10.655-41.165 9.288-40.092 8.776-39.237 9.205-39.131 9.348-38.905 9.348-38.905 9.348-38.905 8.95-38.631 8.782-38.521 8.155-38.103 6.168-36.043 5.417-33.87 5.045-32.799 4.485-31.18 1.907-31.18 1.781-31.18 1.655-31.185 1.526-31.192 1.57-31.03 1.681-30.632 1.82-30.147 2.447-30.89 3.379-31.307 4.496-31.307 4.649-31.307 4.8-31.295 4.948-31.274 5.196-32.606 5.623-33.68 5.975-34.404 6.462-35.414 7.081-36.291 7.585-36.698L7.921-36.975 8.177-36.624C8.333-36.411 8.508-36.111 8.678-35.736 9.785-40.42 11.328-42.004 12.465-42.492L13.225-42.82 13.028-42.017C12.949-41.697 12.846-41.216 12.728-40.639 13.695-42.733 15.008-44.42 16.727-45.78L17.176-46.139 17.373-45.601C17.964-43.965 17.946-41.503 17.323-38.088 17.258-37.748 17.191-37.408 17.121-37.072 17.202-37.273 17.27-37.437 17.323-37.552 18.314-39.721 19.216-41.145 20.159-42.037 21.046-42.874 22.002-43.262 23.162-43.262 23.467-43.262 23.788-43.237 24.149-43.187L25.461-42.99 24.272-42.406C23.069-41.813 20.903-37.679 19.103-34.189 21.812-37.613 24.123-38.819 27.212-39.67L27.797-39.833 27.732-39.228C27.587-37.876 27.162-35.753 25.959-33.317 25.415-32.211 24.77-31.163 24.026-30.164 25.515-30.838 26.807-31.173 27.93-31.173 29.032-31.173 29.986-30.846 30.77-30.196L31.604-29.511 30.524-29.469C29.49-29.427 27.715-28.568 25.522-27.062" fill="#231f20"/>
</g>
<g clip-path="url(#clip_2)">
<path transform="matrix(1,0,0,-1,50.5257,26.788903)" d="M0 0C.216 0 .39 .174 .392 .386 .147 .381-.116 .345-.38 .299-.339 .127-.184 0 0 0M-1.638 .012C-1.487-.758-.813-1.338 0-1.338 .904-1.338 1.637-.624 1.673 .273 1.482 .303 1.307 .329 1.145 .345 1.12-.265 .618-.753 0-.753-.543-.753-1-.371-1.119 .138-1.191 .118-1.261 .103-1.33 .085-1.439 .059-1.542 .035-1.638 .012M5.288-11.402C5.171-11.427 5.053-11.436 4.935-11.436 4.349-11.436 3.795-11.169 3.712-10.733 3.909-10.901 4.361-11.061 4.828-11.061 5.166-11.061 5.517-10.976 5.785-10.746 4.983-8.453 6.983-3.989 5.712-1.905 5.712-1.905 5.68-1.907 5.627-1.907 5.461-1.907 5.083-1.876 4.857-1.593H4.878C6.187-1.593 6.981-.47 6.338 .523 5.966 .283 5.499 .093 5.067 .093 4.885 .093 4.714 .124 4.557 .201 5.957 .465 5.822 1.566 5.226 1.922 4.741 1.631 4.081 1.537 3.327 1.537 1.992 1.537 .363 1.83-1.119 1.83-1.46 1.83-1.796 1.814-2.117 1.775-2.869 1.685-3.193 1.398-3.193 .934-3.193 .553-2.707 .299-2.405 .299-1.886 .299-.558 .804 .493 .804 1.478 .804 3.318 .375 3.894 .243 3.76 .164 3.485 .035 3.103 .035 2.973 .035 2.835 .049 2.686 .085 2.473 .129 2.271 .167 2.085 .201 2.013-.886 1.107-1.751 0-1.751-1.009-1.751-1.853-1.028-2.043-.074-2.178-.098-2.299-.112-2.405-.112-2.453-.112-2.502-.109-2.548-.102-2.476-.657-2.31-1.082-2.083-1.312-1.732-1.665-1.216-1.905-.715-2.137 .212-2.568 1.261-3.055 1.261-4.359 1.261-5.311 .77-5.836-.125-5.836-.32-5.836-.526-5.812-.729-5.782 .435-7.466-1.915-9.963-3.296-10.746-2.993-11.203-2.464-11.389-1.886-11.389-1.198-11.389-.436-11.126 .098-10.733-.092-11.333-.947-11.821-1.86-11.821-2.223-11.821-2.593-11.744-2.939-11.566-5.186-13.704-5.043-15.63-6.015-17.014H-5.814C-4.602-17.014-2.158-16.933-2.158-14.027-2.158-16.635 .493-18.407 .493-18.407 .493-18.407 3.147-16.635 3.147-14.027 3.147-16.853 5.851-17.071 6.687-17.071 6.837-17.071 6.926-17.066 6.926-17.066 6.046-15.114 5.394-12.721 5.288-11.402M-3.505-4.772C-3.874-4.967-4.259-5.199-4.808-5.333-5.008-5.382-5.199-5.406-5.375-5.406-6.163-5.406-6.628-4.933-6.452-4.316-6.452-4.316-5.94-4.557-5.401-4.557-5.209-4.557-5.014-4.526-4.839-4.446-4.089-4.099-3.299-3.572-2.169-3.572-2.05-3.572-1.928-3.577-1.798-3.589-1.319-3.636-1.053-3.826-.905-4.014-1.163-3.977-1.458-3.948-1.746-3.948-2.007-3.948-2.224-3.971-2.412-4.019-2.946-4.151-3.311-4.4-3.498-4.758-3.501-4.761-3.501-4.765-3.505-4.772M21.141-1.373C20.486-1.904 19.6-2.622 18.733-3.326 17.88-4.021 17.189-4.582 16.655-5.015 16.548-5.483 16.405-5.924 16.255-6.318 17.247-5.476 18.833-4.417 20.626-4.313L20.686-4.309C22.96-2.604 25.253-.902 25.981-.381 25.432-.916 23.219-2.782 21.045-4.585L21.055-4.663C21.164-5.397 21.124-6.117 20.979-6.793 22.831-5.368 24.726-3.839 25.212-3.326 26.324-2.168 26.97-.944 27.306 .677 27.206 .682 27.107 .685 27.003 .685 25.46 .685 23.713 .085 22.254-.721 21.904-.912 21.528-1.136 21.141-1.373M29.403-11.135C31.399-10.007 32.474-9.026 32.229-7.783 31.241-8.486 27.776-9.82 25.389-10.702 26.983-10.786 28.298-10.938 29.403-11.135M20.843-7.323C20.568-8.242 20.115-9.061 19.622-9.709 19.644-9.704 19.666-9.697 19.681-9.693 22.872-8.398 27.643-6.546 29.932-5.756 28.362-6.536 24.385-8.187 21.576-9.337 21.863-9.305 22.135-9.288 22.396-9.288 23.369-9.288 24.217-9.525 25.216-10.078L25.359-10.156C26.788-9.411 30.115-7.352 31.246-5.088 30.95-5.023 30.563-4.964 30.013-4.964 29.049-4.964 27.575-5.145 25.173-5.777 23.686-6.17 22.122-6.776 20.843-7.323M22.304-6.289C23.19-5.952 24.147-5.624 25.066-5.382 25.858-5.171 26.581-5.003 27.24-4.873 28.6-3.48 28.949-2.485 28.488-1.458 27.913-2.291 26.353-3.404 23.977-4.945 23.479-5.356 22.904-5.817 22.304-6.289M11.144-27.53C10.915-27.061 10.707-26.542 10.519-25.953 10.562-28.532 10.59-31.848 10.59-31.848 10.59-31.848 10.31-28.556 10.091-26.035 9.956-26.26 9.795-26.471 9.612-26.664 9.2-27.097 8.712-27.404 8.187-27.563 8.678-30.243 9.988-32.208 10.678-32.766 11.072-32.217 11.746-30.831 11.934-28.834 11.642-28.451 11.377-28.014 11.144-27.53M10.471-12.696C10.378-12.518 10.293-12.292 10.243-12.104 9.849-10.511 10.123-8.572 10.987-6.951 12.032-4.989 13.857-3.414 16.268-2.396L16.363-2.355C19.085 .105 21.24 1.455 22.966 2.622 21.129 1.134 19.102-.395 16.813-2.516L16.838-2.731C16.895-3.274 16.865-3.837 16.78-4.383 18.563-2.937 21.111-.856 21.761-.344 22.825 .491 24.109 2.299 24.524 3.705 19.438 3.282 14.894 .044 12.665-1.857 8.786-5.168 7.144-10.143 10.471-12.696M26.953-23.161C26.162-22.959 24.632-22.442 23.73-22.131L23.331-22.2C23.196-22.223 23.06-22.239 22.921-22.256 23.481-22.858 23.916-23.324 23.984-23.391 24.825-24.15 25.592-24.961 26.29-25.815 28.088-26.727 29.557-27.144 30.764-27.144 31.806-27.144 32.652-26.832 33.341-26.264 31.69-26.199 28.949-24.394 27.386-23.264 27.242-23.232 27.098-23.196 26.953-23.161M28.281-18.452C27.605-18.109 26.363-17.629 25.179-17.193 24.37-17.505 23.28-17.746 22.191-17.746 21.988-17.746 21.79-17.736 21.599-17.719 24.941-19.101 30.083-21.239 32.462-22.346 30.093-21.437 24.916-19.449 21.57-18.163 22.603-19.175 23.343-20.394 23.658-21.67 24.506-21.966 26.221-22.551 27.053-22.761 28.281-23.075 29.409-23.187 30.384-23.187 31.872-23.187 32.99-22.926 33.511-22.739 32.977-21.428 31.231-19.931 28.281-18.452M23.704-23.695C23.648-23.639 23.104-23.055 22.399-22.296 22.301-22.297 22.208-22.3 22.11-22.3 21.048-22.3 19.967-22.078 18.904-21.639 21.937-25.392 27.187-31.871 29.195-34.474 26.807-31.731 21.943-25.944 18.535-21.855 18.848-22.407 19.094-22.959 19.272-23.519 19.574-24.47 19.676-25.44 19.574-26.413 23.564-32.898 26.196-34.566 30.157-35.657 29.792-32.274 28.05-27.624 23.704-23.695M15.416-25.357C16.616-30.068 18.473-37.104 19.399-40.534 18.365-37.345 16.246-30.111 14.914-25.532 14.953-25.907 14.973-26.26 14.973-26.597 14.979-28.044 14.653-29.199 13.981-30.127L13.928-30.203C14.851-33.919 15.61-38.516 19.819-41.839 21.053-38.427 19.179-31.569 18.009-27.488 17.067-27.041 16.184-26.308 15.416-25.357M21.145-29.936C20.965-29.591 20.661-28.998 20.322-28.346 20.049-27.936 19.768-27.501 19.482-27.044 19.451-27.203 19.414-27.362 19.374-27.523L19.268-27.928 18.861-27.815C18.739-27.778 18.617-27.737 18.492-27.693 18.7-28.403 18.916-29.18 19.133-29.999 19.718-31.66 20.298-33.251 20.533-33.763 22.507-38.084 24.054-39.234 25.997-39.234 26.295-39.234 26.603-39.206 26.925-39.158 25.503-38.461 23.204-33.928 21.145-29.936M13.775-31.321C13.691-30.966 13.61-30.627 13.527-30.295L13.426-30.231C13.012-29.961 12.639-29.647 12.297-29.274 12.191-30.114 12.002-30.849 11.785-31.451 12.913-36.66 14.531-38.095 15.462-38.494 15.29-37.805 15.01-36.386 14.717-34.827 14.324-33.62 14.041-32.426 13.775-31.321M10.074-25.029C9.617-25.447 9-25.695 8.347-25.695 7.972-25.695 7.606-25.618 7.255-25.462 6.757-25.977 5.963-26.209 5.322-26.209 5.171-26.209 5.03-26.198 4.895-26.173 5.386-26.802 6.167-27.277 7.33-27.277 8.652-27.277 9.76-26.224 10.074-25.029M19.224-9.55C20.215-8.299 20.909-6.488 20.648-4.722 18.861-4.827 17.159-6.002 16.054-7.054 16.628-7.327 17.126-7.822 17.374-8.528L19.819-5.672C19.515-6.074 18.454-7.647 17.672-8.817 18.267-8.889 18.812-9.149 19.224-9.55M7.144-24.939C7.543-25.179 7.956-25.286 8.347-25.286 9.242-25.286 10.028-24.73 10.33-23.954 10.758-24.299 11.252-24.458 11.734-24.458 12.739-24.458 13.694-23.755 13.891-22.529 14.258-22.76 14.646-22.862 15.02-22.862 16.335-22.862 17.508-21.597 17.144-20.103 17.226-20.11 17.304-20.111 17.386-20.111 19.348-20.111 20.24-18.127 19.243-16.675 20.964-16.094 21.211-13.463 19.203-12.594 20.196-10.924 19.019-9.206 17.336-9.206 17.263-9.206 17.185-9.208 17.107-9.216 16.96-7.865 15.866-7.21 14.943-7.21H14.932C13.827-7.215 12.748-8.072 12.748-9.407 11.222-9.411 10.59-10.766 10.59-11.578 10.59-12.471 11.322-13.519 12.566-13.733 12.78-13.222 13.122-12.695 13.783-12.393 13.463-11.369 13.971-10.529 14.322-9.947 14.397-9.825 14.81-9.051 14.81-9.051 14.81-9.051 15.371-9.719 15.471-9.825 15.936-10.319 16.611-11.041 16.508-12.108 17.556-12.34 18.03-13.202 18.359-13.799 18.428-13.926 18.888-14.667 18.888-14.667 18.888-14.667 18.027-14.821 17.888-14.854 17.546-14.935 17.156-15.025 16.74-15.025 16.603-15.025 16.472-15.015 16.345-14.997 16.497-16.469 16.108-17.807 15.192-18.991 13.179-21.586 9.036-22.806 5.66-22.9 5.604-23.221 5.53-23.497 5.473-23.689 5.336-24.141 5.098-24.968 4.876-25.749 5.012-25.782 5.166-25.797 5.322-25.797 6.009-25.797 6.805-25.491 7.144-24.939M25.145-11.1C24.681-11.894 23.958-12.592 23.029-13.139 22.882-13.222 22.732-13.301 22.579-13.378 26.334-13.265 30.352-13.199 32.36-13.125 30.734-13.271 26.014-13.555 22.838-13.747 23.361-13.894 23.884-14.119 24.396-14.421 25.128-14.857 25.812-15.44 26.279-16.024 30.803-15.348 32.187-14.302 33.811-13.009 32.223-12.178 29.95-11.331 25.145-11.1M6.497-20.332C6.439-20.524 6.375-20.71 6.315-20.892 6.131-21.44 5.96-21.959 5.861-22.437L5.851-22.482C10.6-22.287 16.54-19.838 15.917-14.887 15.732-14.818 15.556-14.727 15.392-14.609 15.246-14.769 15.091-14.891 14.931-14.991 15.154-18.849 10.818-20.276 6.497-20.332M6.969-17.498C7.037-18.289 6.861-19.122 6.625-19.92 9.963-19.856 12.544-18.995 13.743-17.531 14.28-16.875 14.539-16.09 14.524-15.19 14.041-15.371 13.574-15.371 13.306-15.371 13.202-15.371 11.985-15.393 11.985-15.393 11.985-15.393 12.282-14.571 12.322-14.431 12.352-14.339 12.383-14.237 12.416-14.136 11.822-14.066 11.412-13.742 11.412-13.742 11.512-14.541 11.412-15.521 11.003-16.132 10.166-17.392 8.48-17.496 6.969-17.498M14.931-6.798H14.943C15.148-6.798 15.363-6.827 15.57-6.878 16.021-5.925 16.591-4.269 16.428-2.778 12.23-4.549 10.529-7.749 10.471-10.416 10.806-9.753 11.428-9.156 12.363-9.022 12.403-8.715 12.498-8.43 12.627-8.178 13.115-6.989 13.761-6.117 15.586-4.002 14.589-5.408 14.069-6.251 13.68-7.123 14.066-6.914 14.502-6.8 14.931-6.798M12.587-14.956C12.643-14.955 12.697-14.953 12.754-14.953 12.925-14.953 13.113-14.958 13.306-14.958 13.998-14.958 14.8-14.866 15.329-14.015 15.778-14.476 16.265-14.614 16.74-14.614 17.278-14.614 17.8-14.431 18.211-14.365 17.793-13.71 17.405-12.507 16.024-12.459 16.403-11.133 15.382-10.39 14.888-9.793 14.528-10.478 13.68-11.419 14.331-12.639 12.989-12.969 12.856-14.229 12.587-14.956M25.968-16.297C25.224-15.352 23.452-13.963 21.466-13.963 21.293-13.963 21.121-13.972 20.944-13.996 21.01-14.244 21.041-14.51 21.032-14.782 21.024-14.966 20.996-15.143 20.953-15.316 22.618-15.671 24.891-16.189 24.891-16.189 24.891-16.189 22.4-15.886 20.831-15.696 20.626-16.189 20.273-16.596 19.821-16.861V-16.863C20.566-17.203 21.39-17.333 22.191-17.333 23.884-17.333 25.473-16.742 25.968-16.297M29.28-18.508C32.15-18.141 33.168-17.203 33.398-16.136 32.763-16.444 30.861-16.59 28.57-16.59 27.848-16.59 27.085-16.574 26.309-16.546L26.245-16.606C26.115-16.722 25.935-16.841 25.718-16.953 26.996-17.43 27.93-17.813 28.466-18.083 28.75-18.225 29.019-18.366 29.28-18.508M23.265-21.796C22.89-20.238 21.759-18.586 20.007-17.429 20.132-18.01 20.056-18.623 19.775-19.158 19.758-19.187 19.742-19.213 19.727-19.242 20.902-20.103 22.56-21.346 22.56-21.346 22.56-21.346 20.773-20.294 19.499-19.573 19.054-20.12 18.391-20.457 17.628-20.514 18.676-21.185 20.285-21.888 22.11-21.888 22.488-21.888 22.872-21.859 23.265-21.796M20.807-13.602C22.587-13.139 24.325-12.069 25.015-10.438 24.087-9.925 23.316-9.7 22.396-9.7 21.639-9.7 20.782-9.852 19.662-10.122 19.971-10.678 20.053-11.304 19.914-11.923 21.513-11.467 23.81-10.791 23.81-10.791 23.81-10.791 21.475-11.796 19.761-12.422 20.233-12.716 20.594-13.124 20.807-13.602M18.976-27.418C19.591-25.056 18.9-22.975 17.576-21.134 17.501-21.54 17.328-21.928 17.066-22.26 16.946-22.417 16.807-22.555 16.655-22.678L18.554-26.644C18.554-26.644 17.181-24.427 16.276-22.94 15.893-23.154 15.459-23.273 15.02-23.273 14.855-23.273 14.69-23.257 14.531-23.224 15.608-25.351 17.214-26.914 18.976-27.418M10.564-24.591C10.928-24.775 11.324-24.87 11.734-24.87 11.911-24.87 12.083-24.851 12.249-24.818 12.718-26.547 13.448-29.02 13.448-29.02 13.448-29.02 13.009-26.485 12.694-24.685 13.313-24.436 13.814-23.944 14.094-23.298 14.746-25.959 14.819-28.271 13.648-29.885 12.026-28.838 11.163-27.008 10.564-24.591M9.594-41.444C10.054-42.188 10.606-43.09 10.739-43.325 10.552-43.137 9.83-42.33 9.237-41.667 9.2-42.14 9.129-42.575 9.021-42.971 9.605-43.591 10.295-43.788 11.024-43.853 11.321-43.271 11.212-42.391 11.089-41.822 10.596-41.74 10.095-41.614 9.594-41.444M12.445-41.53C11.299-41.53 10.068-41.25 8.852-40.716 8.896-42.94 8.248-44.734 6.537-45.165 6.537-45.165 6.678-44.146 6.573-43.685 7.386-43.014 8.14-41.516 7.26-39.336 7.621-41.686 6.987-43.095 5.96-43.553 5.773-41.68 5.369-39.125 3.197-36.551 3.163-35.987 3.147-35.403 3.147-34.802 3.147-32.415 3.695-29.384 4.133-28.005 4.347-27.984 4.549-27.975 4.741-27.975 6.979-27.975 7.475-29.265 7.864-30.386 8.628-32.603 10.649-34.754 11.391-35.247 11.134-35.306 10.869-35.337 10.6-35.337 9.286-35.337 7.898-34.665 7.301-33.498 5.845-33.457 5.064-32.964 4.133-32.049 4.917-33.402 5.941-33.796 7.095-33.928 7.691-35.036 9.061-35.746 10.568-35.746 10.772-35.746 10.978-35.733 11.183-35.707 11.606-36.447 12.341-37.068 12.765-37.403 12.434-37.492 12.01-37.556 11.543-37.556 10.335-37.556 8.812-37.137 7.674-35.629H7.654C6.058-35.629 4.91-34.693 4.133-34.08 4.795-35.097 6.041-36.092 7.604-36.149 8.407-37.269 9.863-37.97 11.432-37.97 11.697-37.97 11.969-37.955 12.239-37.912 12.79-38.499 13.656-39.03 13.984-39.196 13.558-39.409 12.827-39.557 12.003-39.557 10.452-39.557 8.579-39.038 7.826-37.495 7.736-37.502 7.647-37.502 7.559-37.502 5.992-37.502 4.983-36.678 4.133-36.015 4.907-37.215 6.129-38.018 7.596-38.018H7.623C8.477-39.45 10.324-39.994 11.911-39.994 12.503-39.994 13.062-39.918 13.517-39.785 14.1-40.327 14.42-40.665 14.951-40.985 14.209-41.351 13.357-41.53 12.445-41.53M9.322-54.687C9.395-55.256 8.68-56.715 7.383-56.715 5.28-56.715 2.867-53.212 2.178-52.155 2.142-52.62 2.085-53.072 2.011-53.51 2.631-54.615 4.589-57.857 7.383-57.857 8.667-57.857 9.931-57.158 9.621-55.765 10.199-56.967 9.189-58.264 7.383-58.264 5.369-58.264 3.235-56.698 2.056-54.46 2.135-55.264 2.185-56.032 2.193-56.756 3.123-58.162 4.608-59.797 7.383-59.797 8.965-59.797 10.783-58.666 10.783-56.863 10.783-55.996 10.335-55.175 9.322-54.687M-1.066-54.46C-2.247-56.698-4.38-58.264-6.394-58.264-8.202-58.264-9.213-56.967-8.634-55.765-8.946-57.158-7.68-57.857-6.394-57.857-3.601-57.857-1.642-54.615-1.023-53.51-1.096-53.072-1.15-52.62-1.191-52.155-1.878-53.212-4.293-56.715-6.394-56.715-7.693-56.715-8.407-55.256-8.335-54.687-9.347-55.175-9.795-55.996-9.795-56.863-9.795-58.666-7.977-59.797-6.394-59.797-3.622-59.797-2.134-58.162-1.205-56.756-1.194-56.032-1.149-55.264-1.066-54.46M.856-57.219 .643-57.608C.586-58.968 .529-60.407 .493-61.442 .459-60.407 .403-58.968 .346-57.605L.134-57.219C-.17-56.669-.463-55.904-.704-55.004-.965-58.083-.696-60.811 .493-63.12 1.682-60.811 1.953-58.083 1.692-55.004 1.452-55.904 1.155-56.669 .856-57.219M8.477-49.779C8.587-50.324 8.65-51.749 7.383-51.749 5.671-51.749 3.518-50.051 2.58-48.439 2.34-48.247 2.124-48.038 1.942-47.833 2.056-48.369 2.131-48.913 2.178-49.451 2.693-50.361 3.632-51.384 4.628-52.027 5.595-52.65 6.569-53.014 7.383-53.014 7.946-53.014 8.444-52.841 8.727-52.505 9.049-52.128 9.161-51.551 9.052-50.806 9.331-51.636 9.307-52.287 8.989-52.734 8.701-53.14 8.091-53.357 7.383-53.357 5.59-53.357 3.607-52.205 2.229-50.289 2.24-50.718 2.239-51.137 2.216-51.551 2.768-52.233 3.449-53.016 3.841-53.326 4.424-53.787 5.995-54.636 7.383-54.636 9.665-54.636 10.356-53.313 10.356-52.014 10.356-50.839 9.206-49.856 8.477-49.779M-1.242-50.289C-2.621-52.205-4.599-53.357-6.394-53.357-7.104-53.357-7.713-53.14-8.002-52.734-8.318-52.287-8.343-51.636-8.065-50.806-8.173-51.551-8.062-52.128-7.738-52.505-7.454-52.841-6.959-53.014-6.394-53.014-5.58-53.014-4.606-52.65-3.639-52.027-2.647-51.384-1.704-50.361-1.191-49.451-1.141-48.913-1.066-48.369-.953-47.833-1.135-48.038-1.349-48.247-1.592-48.439-2.527-50.051-4.682-51.749-6.394-51.749-7.663-51.749-7.598-50.324-7.49-49.779-8.219-49.856-9.368-50.839-9.368-52.014-9.368-53.313-8.676-54.636-6.394-54.636-5.007-54.636-3.436-53.787-2.856-53.326-2.463-53.016-1.778-52.233-1.23-51.551-1.249-51.137-1.252-50.718-1.242-50.289M.822-48.247 .681-48.424C.621-50.662 .528-54.135 .493-55.271 .46-54.135 .367-50.662 .305-48.424L.167-48.247C-.048-47.965-.232-47.629-.387-47.247-1.417-51.008-.496-55.223 .493-57.017 1.483-55.223 2.405-51.008 1.376-47.247 1.221-47.629 1.038-47.965 .822-48.247M6.504-46.54C6.102-46.821 5.721-46.948 5.366-46.948 3.883-46.948 2.854-44.738 2.549-42.412 2.546-42.386 2.543-42.361 2.54-42.336 2.435-42.182 2.336-42.023 2.24-41.845 2.204-42.722 2.142-43.642 2.024-44.532 2.336-45.806 3.529-47.738 4.958-47.738 5.266-47.738 5.895-47.641 6.226-47.25 6.098-47.796 5.361-47.988 4.958-47.988 3.147-47.988 2.17-46.057 1.898-45.336 1.821-45.76 1.73-46.17 1.618-46.548 1.802-47.107 2.952-48.868 4.958-48.868 5.992-48.868 7.015-48.074 6.504-46.54M-3.969-47.988C-4.371-47.988-5.113-47.796-5.237-47.25-4.907-47.641-4.28-47.738-3.969-47.738-2.541-47.738-1.346-45.806-1.036-44.532-1.154-43.642-1.216-42.722-1.25-41.845-1.346-42.023-1.448-42.182-1.553-42.336-1.554-42.361-1.559-42.386-1.559-42.412-1.864-44.738-2.896-46.948-4.378-46.948-4.732-46.948-5.113-46.821-5.514-46.54-6.025-48.074-5.004-48.868-3.969-48.868-1.963-48.868-.813-47.107-.628-46.548-.741-46.167-.836-45.76-.911-45.336-1.179-46.057-2.157-47.988-3.969-47.988M1.316-38.984C1.173-39.315 1.011-39.61 .824-39.862L.744-39.969C.643-42.862 .493-46.874 .493-46.881 .493-46.874 .346-42.862 .245-39.969L.163-39.862C-.022-39.61-.184-39.315-.329-38.984-.489-39.78-.671-40.447-.876-40.998-.868-41.135-.862-41.262-.858-41.379-.78-43.704-.54-46.656 .493-47.994 1.53-46.656 1.765-43.704 1.845-41.379 1.85-41.262 1.857-41.135 1.864-40.998 1.659-40.447 1.478-39.78 1.316-38.984M2.735-34.802C2.735-32.463 3.267-29.412 3.725-27.932 3.607-27.913 3.437-27.878 3.235-27.822 3.014-28.591 2.647-29.323 2.266-29.949 2.266-29.999 2.27-30.05 2.27-30.101 2.303-30.744 2.501-35.303 1.596-38.227 2.135-41.377 2.928-42.725 4.331-43.208 3.192-41.113 2.735-37.916 2.735-34.802M-1.281-30.101C-1.28-30.05-1.28-30.002-1.277-29.951-1.661-29.326-2.027-28.591-2.25-27.822-2.449-27.878-2.618-27.913-2.735-27.929-2.28-29.407-1.746-32.463-1.746-34.802-1.746-37.916-2.205-41.113-3.342-43.208-1.941-42.725-1.148-41.377-.608-38.227-1.513-35.301-1.315-30.744-1.281-30.101M1.877-30.549C1.98-33.253 1.814-37.848 .493-39.612-.826-37.85-.994-33.259-.889-30.551-.345-31.344 .147-31.868 .192-31.919L.305-32.033C.379-34.149 .466-36.432 .493-37.149 .523-36.432 .607-34.149 .684-32.033L.795-31.919C.839-31.868 1.329-31.339 1.877-30.549M1.905-27.221C1.42-26.903 .886-26.41 .492-25.667 .099-26.41-.435-26.903-.919-27.221-1.244-27.435-1.567-27.587-1.856-27.694-1.261-29.77 .492-31.637 .492-31.637 .492-31.637 2.247-29.77 2.843-27.694 2.551-27.587 2.229-27.435 1.905-27.221M3.61-22.108C2.774-23.892 1.211-25.111 .814-25.399 1.806-27.373 3.941-27.544 3.941-27.544 3.941-27.544 4.763-24.598 5.079-23.569 5.162-23.302 5.226-23.019 5.273-22.731 5.038-22.672 4.381-22.481 3.61-22.108M-2.622-22.108C-3.392-22.481-4.054-22.672-4.288-22.731-4.242-23.019-4.174-23.302-4.09-23.569-3.778-24.598-2.954-27.544-2.954-27.544-2.954-27.544-.818-27.373 .169-25.399-.227-25.108-1.786-23.892-2.622-22.108M2.843-21.693C1.66-20.965 .865-20.054 .492-19.007 .121-20.054-.672-20.965-1.856-21.693-1.989-21.774-2.121-21.848-2.254-21.92-1.349-23.857 .492-25.123 .492-25.123 .492-25.123 2.336-23.857 3.239-21.92 3.11-21.848 2.976-21.774 2.843-21.693M4.413-16.974C3.874-16.694 3.461-16.307 3.18-15.823 2.518-17.378 1.191-18.417 .817-18.681 1.644-21.473 5.457-22.352 5.457-22.352 5.774-20.861 6.723-19.055 6.555-17.483 6.043-17.469 5.188-17.38 4.413-16.974M.167-18.681C-.659-21.473-4.47-22.352-4.47-22.352-4.792-20.845-5.82-19.013-5.574-17.422-5.014-17.419-4.116-17.365-3.347-16.978-2.831-16.72-2.438-16.347-2.169-15.877-1.503-17.397-.202-18.414 .167-18.681M-21.265-.721C-22.725 .085-24.473 .685-26.016 .685-26.118 .685-26.219 .682-26.319 .677-25.98-.944-25.336-2.168-24.227-3.326-23.736-3.839-21.843-5.368-19.991-6.793-20.134-6.117-20.176-5.397-20.068-4.663L-20.057-4.585C-22.231-2.782-24.444-.916-24.993-.381-24.265-.902-21.97-2.604-19.7-4.309L-19.636-4.313C-17.845-4.417-16.26-5.476-15.269-6.318-15.417-5.924-15.559-5.483-15.667-5.015-16.201-4.582-16.888-4.021-17.745-3.326-18.614-2.622-19.498-1.904-20.151-1.373-20.54-1.136-20.919-.912-21.265-.721M-24.402-10.702C-26.789-9.82-30.252-8.486-31.242-7.783-31.485-9.026-30.412-10.007-28.415-11.135-27.31-10.938-25.995-10.786-24.402-10.702M-24.183-5.777C-26.587-5.145-28.061-4.964-29.024-4.964-29.576-4.964-29.961-5.023-30.259-5.088-29.126-7.352-25.803-9.411-24.37-10.156L-24.228-10.078C-23.227-9.525-22.383-9.288-21.408-9.288-21.147-9.288-20.874-9.305-20.588-9.337-23.401-8.187-27.374-6.536-28.944-5.756-26.653-6.546-21.883-8.398-18.693-9.693-18.676-9.697-18.658-9.704-18.637-9.709-19.126-9.061-19.579-8.242-19.854-7.323-21.135-6.776-22.7-6.17-24.183-5.777M-22.991-4.945C-25.364-3.404-26.924-2.291-27.5-1.458-27.964-2.485-27.614-3.48-26.252-4.873-25.593-5.003-24.868-5.171-24.078-5.382-23.159-5.624-22.203-5.952-21.314-6.289-21.917-5.817-22.491-5.356-22.991-4.945M-10.945-28.834C-10.758-30.831-10.086-32.217-9.689-32.766-9.003-32.208-7.689-30.243-7.198-27.563-7.722-27.404-8.212-27.097-8.624-26.664-8.808-26.471-8.968-26.26-9.104-26.035-9.32-28.556-9.603-31.848-9.603-31.848-9.603-31.848-9.572-28.532-9.531-25.953-9.722-26.542-9.926-27.061-10.153-27.53-10.392-28.014-10.655-28.451-10.945-28.834M-11.68-1.857C-13.906 .044-18.449 3.282-23.535 3.705-23.122 2.299-21.84 .491-20.776-.344-20.124-.856-17.574-2.937-15.792-4.383-15.876-3.837-15.909-3.274-15.849-2.731L-15.825-2.516C-18.113-.395-20.139 1.134-21.976 2.622-20.252 1.455-18.095 .105-15.375-2.355L-15.28-2.396C-12.868-3.414-11.04-4.989-9.998-6.951-9.137-8.572-8.863-10.511-9.258-12.104-9.303-12.292-9.39-12.518-9.483-12.696-6.155-10.143-7.797-5.168-11.68-1.857M-26.399-23.264C-27.964-24.394-30.699-26.199-32.355-26.264-31.664-26.832-30.818-27.144-29.779-27.144-28.57-27.144-27.098-26.727-25.302-25.815-24.607-24.961-23.837-24.15-22.995-23.391-22.929-23.324-22.493-22.858-21.934-22.256-22.073-22.239-22.207-22.223-22.344-22.2L-22.743-22.131C-23.646-22.442-25.173-22.959-25.964-23.161-26.109-23.196-26.255-23.232-26.399-23.264M-32.52-22.739C-32.001-22.926-30.883-23.187-29.395-23.187-28.423-23.187-27.29-23.075-26.065-22.761-25.232-22.551-23.52-21.966-22.668-21.67-22.357-20.394-21.614-19.175-20.582-18.163-23.927-19.449-29.104-21.437-31.472-22.346-29.097-21.239-23.951-19.101-20.61-17.719-20.802-17.736-20.999-17.746-21.202-17.746-22.293-17.746-23.385-17.505-24.194-17.193-25.375-17.629-26.613-18.109-27.293-18.452-30.245-19.931-31.988-21.428-32.52-22.739M-29.169-35.657C-25.209-34.566-22.575-32.898-18.588-26.413-18.689-25.44-18.589-24.47-18.283-23.519-18.106-22.959-17.859-22.407-17.545-21.855-20.955-25.944-25.822-31.731-28.207-34.474-26.202-31.871-20.951-25.392-17.916-21.639-18.98-22.078-20.058-22.3-21.122-22.3-21.218-22.3-21.314-22.297-21.411-22.296-22.115-23.055-22.66-23.639-22.718-23.695-27.061-27.624-28.804-32.274-29.169-35.657M-17.02-27.488C-18.192-31.569-20.068-38.427-18.83-41.839-14.623-38.516-13.861-33.919-12.939-30.203L-12.994-30.127C-13.665-29.199-13.992-28.044-13.985-26.597-13.985-26.26-13.963-25.907-13.926-25.532-15.257-30.111-17.374-37.345-18.411-40.534-17.485-37.104-15.632-30.068-14.428-25.357-15.195-26.308-16.079-27.041-17.02-27.488M-25.935-39.158C-25.616-39.206-25.309-39.234-25.007-39.234-23.068-39.234-21.519-38.084-19.546-33.763-19.311-33.251-18.728-31.66-18.145-29.999-17.927-29.18-17.712-28.403-17.508-27.693-17.629-27.737-17.751-27.778-17.874-27.815L-18.279-27.928-18.385-27.523C-18.426-27.362-18.461-27.203-18.493-27.044-18.78-27.501-19.06-27.936-19.338-28.346-19.674-28.998-19.976-29.591-20.157-29.936-22.217-33.928-24.516-38.461-25.935-39.158M-13.727-34.827C-14.024-36.386-14.305-37.805-14.475-38.494-13.543-38.095-11.926-36.66-10.797-31.451-11.014-30.849-11.199-30.114-11.311-29.274-11.65-29.647-12.024-29.961-12.437-30.231L-12.54-30.295C-12.62-30.627-12.703-30.966-12.788-31.321-13.052-32.426-13.337-33.62-13.727-34.827M-6.34-27.277C-5.179-27.277-4.396-26.802-3.909-26.173-4.041-26.198-4.185-26.209-4.332-26.209-4.975-26.209-5.768-25.977-6.266-25.462-6.619-25.618-6.985-25.695-7.358-25.695-8.011-25.695-8.627-25.447-9.089-25.029-8.771-26.224-7.664-27.277-6.34-27.277M-16.685-8.817C-17.465-7.647-18.526-6.074-18.83-5.672L-16.384-8.528C-16.14-7.822-15.64-7.327-15.066-7.054-16.173-6.002-17.874-4.827-19.66-4.722-19.925-6.488-19.225-8.299-18.235-9.55-17.826-9.149-17.279-8.889-16.685-8.817M-4.332-25.797C-4.175-25.797-4.027-25.782-3.887-25.749-4.109-24.968-4.346-24.141-4.484-23.689-4.542-23.497-4.614-23.221-4.671-22.9-8.047-22.806-12.189-21.586-14.203-18.991-15.119-17.807-15.507-16.469-15.358-14.997-15.483-15.015-15.614-15.025-15.749-15.025-16.173-15.025-16.557-14.935-16.899-14.854-17.04-14.821-17.901-14.667-17.901-14.667-17.901-14.667-17.44-13.926-17.371-13.799-17.043-13.202-16.568-12.34-15.52-12.108-15.622-11.041-14.948-10.319-14.483-9.825-14.384-9.719-13.82-9.051-13.82-9.051-13.82-9.051-13.408-9.825-13.333-9.947-12.983-10.529-12.471-11.369-12.795-12.393-12.133-12.695-11.792-13.222-11.578-13.733-10.335-13.519-9.603-12.471-9.603-11.578-9.603-10.766-10.236-9.411-11.761-9.407-11.761-8.072-12.837-7.215-13.943-7.21H-13.951C-14.877-7.21-15.971-7.865-16.123-9.216-16.197-9.208-16.274-9.206-16.349-9.206-18.03-9.206-19.207-10.924-18.217-12.594-20.221-13.463-19.974-16.094-18.256-16.675-19.251-18.127-18.36-20.111-16.397-20.111-16.316-20.111-16.24-20.11-16.156-20.103-16.519-21.597-15.347-22.862-14.032-22.862-13.657-22.862-13.27-22.76-12.902-22.529-12.706-23.755-11.751-24.458-10.746-24.458-10.263-24.458-9.769-24.299-9.343-23.954-9.041-24.73-8.253-25.286-7.358-25.286-6.966-25.286-6.556-25.179-6.155-24.939-5.819-25.491-5.021-25.797-4.332-25.797M-32.824-13.009C-31.198-14.302-29.815-15.348-25.291-16.024-24.828-15.44-24.143-14.857-23.408-14.421-22.896-14.119-22.374-13.894-21.85-13.747-25.027-13.555-29.748-13.271-31.372-13.125-29.363-13.199-25.346-13.265-21.59-13.378-21.745-13.301-21.895-13.222-22.04-13.139-22.972-12.592-23.693-11.894-24.157-11.1-28.964-11.331-31.235-12.178-32.824-13.009M-13.941-14.991C-14.1-14.891-14.259-14.769-14.406-14.609-14.568-14.727-14.745-14.818-14.929-14.887-15.551-19.838-9.612-22.287-4.86-22.482L-4.871-22.437C-4.973-21.959-5.144-21.44-5.326-20.892-5.387-20.71-5.449-20.524-5.509-20.332-9.829-20.276-14.167-18.849-13.941-14.991M-10.014-16.132C-10.422-15.521-10.521-14.541-10.422-13.742-10.422-13.742-10.834-14.066-11.428-14.136-11.395-14.237-11.363-14.339-11.337-14.431-11.293-14.571-10.998-15.393-10.998-15.393-10.998-15.393-12.214-15.371-12.317-15.371-12.589-15.371-13.052-15.371-13.536-15.19-13.551-16.09-13.29-16.875-12.752-17.531-11.558-18.995-8.976-19.856-5.636-19.92-5.872-19.122-6.049-18.289-5.981-17.498-7.492-17.496-9.177-17.392-10.014-16.132M-12.692-7.123C-13.079-6.251-13.601-5.408-14.599-4.002-12.772-6.117-12.129-6.989-11.64-8.178-11.509-8.43-11.418-8.715-11.374-9.022-10.439-9.156-9.817-9.753-9.483-10.416-9.54-7.749-11.242-4.549-15.438-2.778-15.603-4.269-15.034-5.925-14.583-6.878-14.374-6.827-14.16-6.798-13.951-6.798H-13.943C-13.513-6.8-13.078-6.914-12.692-7.123M-13.344-12.639C-12.692-11.419-13.54-10.478-13.899-9.793-14.392-10.39-15.417-11.133-15.034-12.459-16.414-12.507-16.808-13.71-17.222-14.365-16.81-14.431-16.294-14.614-15.749-14.614-15.277-14.614-14.788-14.476-14.341-14.015-13.811-14.866-13.013-14.958-12.317-14.958-12.123-14.958-11.937-14.953-11.765-14.953-11.707-14.953-11.653-14.955-11.599-14.956-11.869-14.229-12-12.969-13.344-12.639M-21.202-17.333C-20.401-17.333-19.579-17.203-18.834-16.863V-16.861C-19.286-16.596-19.636-16.189-19.841-15.696-21.415-15.886-23.902-16.189-23.902-16.189-23.902-16.189-21.632-15.671-19.968-15.316-20.007-15.143-20.035-14.966-20.044-14.782-20.054-14.51-20.024-14.244-19.957-13.996-20.134-13.972-20.306-13.963-20.48-13.963-22.465-13.963-24.238-15.352-24.982-16.297-24.486-16.742-22.896-17.333-21.202-17.333M-27.478-18.083C-26.941-17.813-26.01-17.43-24.728-16.953-24.948-16.841-25.129-16.722-25.258-16.606L-25.324-16.546C-26.097-16.574-26.859-16.59-27.584-16.59-29.871-16.59-31.775-16.444-32.409-16.136-32.182-17.203-31.161-18.141-28.293-18.508-28.033-18.366-27.762-18.225-27.478-18.083M-21.122-21.888C-19.298-21.888-17.687-21.185-16.638-20.514-17.404-20.457-18.066-20.12-18.511-19.573-19.785-20.294-21.571-21.346-21.571-21.346-21.571-21.346-19.914-20.103-18.739-19.242-18.754-19.213-18.772-19.187-18.785-19.158-19.069-18.623-19.145-18.01-19.021-17.429-20.77-18.586-21.901-20.238-22.277-21.796-21.883-21.859-21.5-21.888-21.122-21.888M-18.773-12.422C-20.488-11.796-22.822-10.791-22.822-10.791-22.822-10.791-20.526-11.467-18.926-11.923-19.067-11.304-18.983-10.678-18.672-10.122-19.797-9.852-20.653-9.7-21.408-9.7-22.328-9.7-23.1-9.925-24.029-10.438-23.338-12.069-21.6-13.139-19.819-13.602-19.604-13.124-19.244-12.716-18.773-12.422M-13.543-23.224C-13.704-23.257-13.867-23.273-14.032-23.273-14.472-23.273-14.905-23.154-15.29-22.94-16.192-24.427-17.565-26.644-17.565-26.644L-15.667-22.678C-15.82-22.555-15.956-22.417-16.077-22.26-16.34-21.928-16.512-21.54-16.59-21.134-17.912-22.975-18.604-25.056-17.986-27.418-16.223-26.914-14.618-25.351-13.543-23.224M-12.661-29.885C-13.83-28.271-13.757-25.959-13.105-23.298-12.825-23.944-12.328-24.436-11.707-24.685-12.019-26.485-12.463-29.02-12.463-29.02-12.463-29.02-11.732-26.547-11.263-24.818-11.095-24.851-10.923-24.87-10.746-24.87-10.337-24.87-9.94-24.775-9.575-24.591-10.172-27.008-11.037-28.838-12.661-29.885M-10.102-41.822C-10.22-42.391-10.332-43.271-10.036-43.853-9.305-43.788-8.614-43.591-8.032-42.971-8.14-42.575-8.212-42.14-8.249-41.667-8.839-42.33-9.563-43.137-9.752-43.325-9.62-43.09-9.066-42.188-8.606-41.444-9.107-41.614-9.607-41.74-10.102-41.822M-13.963-40.985C-13.43-40.665-13.111-40.327-12.53-39.785-12.073-39.918-11.515-39.994-10.923-39.994-9.334-39.994-7.492-39.45-6.634-38.018H-6.609C-5.142-38.018-3.919-37.215-3.145-36.015-3.994-36.678-5.004-37.502-6.571-37.502-6.659-37.502-6.747-37.502-6.837-37.495-7.592-39.038-9.463-39.557-11.014-39.557-11.838-39.557-12.57-39.409-12.997-39.196-12.667-39.03-11.801-38.499-11.249-37.912-10.98-37.955-10.712-37.97-10.446-37.97-8.875-37.97-7.421-37.269-6.616-36.149-5.051-36.092-3.807-35.097-3.145-34.08-3.92-34.693-5.065-35.629-6.666-35.629H-6.69C-7.822-37.137-9.347-37.556-10.553-37.556-11.024-37.556-11.445-37.492-11.778-37.403-11.354-37.068-10.619-36.447-10.195-35.707-9.989-35.733-9.785-35.746-9.582-35.746-8.072-35.746-6.704-35.036-6.107-33.928-4.949-33.796-3.931-33.402-3.145-32.049-4.072-32.964-4.859-33.457-6.312-33.498-6.912-34.665-8.298-35.337-9.609-35.337-9.881-35.337-10.148-35.306-10.403-35.247-9.66-34.754-7.639-32.603-6.874-30.386-6.487-29.265-5.992-27.975-3.752-27.975-3.562-27.975-3.359-27.984-3.145-28.005-2.706-29.384-2.158-32.415-2.158-34.802-2.158-35.403-2.176-35.987-2.21-36.551-4.38-39.125-4.783-41.68-4.973-43.553-5.997-43.095-6.633-41.686-6.272-39.336-7.153-41.516-6.398-43.014-5.585-43.685-5.688-44.146-5.551-45.165-5.551-45.165-7.261-44.734-7.907-42.94-7.862-40.716-9.078-41.25-10.314-41.53-11.457-41.53-12.368-41.53-13.219-41.351-13.963-40.985" fill="#ffffff"/>
<path transform="matrix(1,0,0,-1,48.3591,24.6053)" d="M0 0C.321 .039 .663 .059 1.048 .059 1.826 .059 2.637-.022 3.421-.095 4.163-.166 4.862-.235 5.493-.235 5.714-.235 5.914-.224 6.101-.207 6.819 1.672 8.345 3.438 9.149 4.905 8.626 4.738 7.418 4.902 7.062 4.416 6.903 4.204 7.068 3.721 6.768 3.721H6.765C6.784 3.994 6.516 4.241 6.181 4.241 5.982 4.241 5.755 4.15 5.557 3.919 5.122 3.41 6.116 2.429 5.584 1.443 5.608 1.442 5.631 1.442 5.651 1.442 6.264 1.442 6.344 2.223 6.344 2.635 6.756 1.651 6.108 .994 5.085 .994 4.919 .994 4.745 1.01 4.563 1.048 3.504 1.252 3.027 1.704 3.027 2.676 3.071 2.971 3.053 3.183 3.39 3.394 3.286 3.158 3.269 2.872 3.269 2.6 3.269 2.16 3.504 1.799 3.884 1.664 3.808 2.958 5.135 3.289 5.036 4.236 4.996 4.599 4.565 4.877 4.043 4.877 3.86 4.877 3.668 4.842 3.476 4.763 3.969 5.643 2.923 6.492 2.66 6.921 2.398 6.492 1.351 5.643 1.846 4.763 1.653 4.842 1.463 4.877 1.277 4.877 .757 4.877 .325 4.599 .286 4.236 .187 3.289 1.514 2.958 1.437 1.664 1.817 1.799 2.052 2.16 2.052 2.6 2.052 2.872 2.033 3.158 1.933 3.394 2.266 3.183 2.251 2.971 2.294 2.676 2.294 1.715 1.814 1.252 .759 1.048 .578 1.01 .402 .994 .239 .994-.786 .994-1.434 1.651-1.022 2.635-1.022 2.223-.945 1.442-.33 1.442-.309 1.442-.286 1.442-.264 1.443-.796 2.429 .203 3.41-.238 3.919-.436 4.15-.661 4.241-.861 4.241-1.194 4.241-1.463 3.994-1.443 3.721H-1.446C-1.742 3.721-1.581 4.204-1.74 4.416-2.098 4.902-3.305 4.738-3.83 4.905-3.022 3.435-1.498 1.671-.779-.212-.577-.113-.325-.04 0 0M16.151-56.187C15.861-56.286 15.505-56.328 15.179-56.328 14.982-56.328 14.798-56.314 14.65-56.286 14.64-57.086 15.248-57.521 15.995-57.521 16.139-57.521 16.293-57.506 16.447-57.475 16.211-57.048 16.17-56.664 16.151-56.187M21.961-59.489C21.905-59.97 21.814-60.351 21.548-60.755 21.746-60.816 21.944-60.841 22.135-60.841 22.819-60.841 23.38-60.457 23.429-59.71 23.309-59.74 23.177-59.753 23.043-59.753 22.665-59.753 22.255-59.647 21.961-59.489M27.541-57.003C27.294-57.131 26.97-57.188 26.657-57.188 26.444-57.188 26.237-57.163 26.062-57.117 26.113-57.593 26.112-57.988 25.94-58.439 25.991-58.444 26.043-58.447 26.094-58.447 26.981-58.447 27.682-57.897 27.541-57.003M28.859-51.552C28.693-51.988 28.233-52.421 27.832-52.624 28.19-52.942 28.449-53.239 28.624-53.692 29.381-53.1 29.602-52.157 28.859-51.552M17.565-51.318C16.794-50.41 14.794-48.32 12.957-46.426 12.357-46.352 11.67-46.169 11.059-45.605 11.017-45.713 10.977-45.826 10.929-45.928 13.07-47.755 16.494-50.626 17.205-51.409 17.53-51.773 17.599-52.149 17.578-52.456 17.68-52.347 17.746-52.227 17.775-52.121 17.823-51.945 17.727-51.506 17.565-51.318M28.662-51.312C28.381-51.734 28.04-52.241 27.436-52.363 27.223-52.406 27.022-52.426 26.838-52.426 26.101-52.426 25.619-52.113 25.379-51.811 24.421-52.296 24.077-52.672 22.974-52.741 22.568-52.599 22.358-52.507 21.718-52.38 22.197-52.706 23.047-53.199 23.743-53.489 24.317-53.73 24.696-53.735 25.259-54.198 25.585-53.809 25.997-53.651 26.384-53.651 26.665-53.651 26.933-53.735 27.152-53.873 27.684-54.213 27.969-54.885 27.766-55.535 27.64-55.942 27.089-56.176 26.495-56.176 26.397-56.176 26.298-56.171 26.199-56.155 26.384-56.275 26.59-56.326 26.801-56.326 27.15-56.326 27.505-56.187 27.747-55.985 27.979-55.993 28.074-56.412 27.575-56.639 27.301-56.761 26.951-56.853 26.584-56.853 26.377-56.853 26.164-56.821 25.959-56.753 25.325-56.542 24.862-55.889 24.862-55.294 23.887-55.23 23.265-55.006 22.329-54.173 22.074-53.943 21.728-53.664 21.427-53.498 21.117-53.138 20.556-52.787 20.232-52.642 21.605-54.035 21.705-54.712 22.508-56.036 22.635-56.018 22.754-56.006 22.866-56.006 24.299-56.006 24.597-57.638 24.034-58.279 23.73-58.627 23.342-58.714 23.014-58.714 22.807-58.714 22.623-58.677 22.497-58.653 22.663-58.892 22.935-58.955 23.208-58.955 23.441-58.955 23.673-58.909 23.849-58.881 23.993-58.907 24.046-59.328 23.57-59.399 23.492-59.412 23.364-59.426 23.205-59.426 22.82-59.426 22.255-59.341 21.779-58.927 21.071-58.317 21.21-57.406 21.449-56.829 19.999-55.495 19.926-54.14 19.237-53.6 19.388-53.893 19.439-54.137 19.469-54.363 18.892-54.51 18.336-54.543 17.861-54.543 17.457-54.543 17.157-54.51 17.055-54.49 16.985-55.106 16.687-55.52 16.223-55.754 15.981-55.876 15.57-55.978 15.097-55.978 14.869-55.978 14.631-55.952 14.39-55.896 13.934-55.792 14.034-55.334 14.218-55.304 14.309-55.375 14.644-55.51 15.023-55.51 15.166-55.51 15.32-55.489 15.466-55.439 14.918-55.439 14.419-55.197 14.1-54.773 13.738-54.297 13.955-52.787 15.398-52.695 15.423-52.693 15.449-52.69 15.472-52.69 16.065-52.69 16.488-53.133 17.028-53.133 17.132-53.133 17.239-53.118 17.354-53.079 17.79-52.927 18.074-52.587 18.171-52.227 18.256-51.912 18.123-51.338 17.876-51.051 17.132-50.168 15.258-48.206 13.481-46.375 13.896-45.671 13.825-44.72 13.698-44.066 13.923-44.095 14.146-44.11 14.367-44.12 14.944-44.705 15.472-45.244 15.854-45.569 15.629-45.694 15.371-45.745 15.096-45.745 14.8-45.745 14.482-45.684 14.175-45.599 14.508-45.91 14.938-46.017 15.34-46.017 15.498-46.017 15.652-46.001 15.796-45.973 16.038-46.284 16.833-46.957 17.15-47.214 16.91-47.361 16.62-47.41 16.334-47.41 15.986-47.41 15.638-47.336 15.372-47.265 15.683-47.58 16.08-47.672 16.477-47.672 16.704-47.672 16.928-47.641 17.139-47.606 17.548-48.129 18.173-48.609 18.568-48.905 18.341-49.027 18.059-49.075 17.785-49.075 17.371-49.075 16.962-48.968 16.73-48.877 17.012-49.223 17.416-49.369 17.908-49.369 18.111-49.369 18.331-49.342 18.561-49.294 18.998-49.71 19.616-50.22 20.036-50.453 19.806-50.616 19.482-50.683 19.134-50.683 18.752-50.683 18.344-50.602 18.015-50.489 18.428-50.837 18.875-50.997 19.316-50.997 19.515-50.997 19.712-50.964 19.91-50.906 19.958-50.964 20.106-51.104 20.26-51.2 20.397-51.287 20.589-51.32 20.81-51.32 21.578-51.32 22.667-50.906 22.793-50.862 23.337-50.689 24.108-50.567 24.807-50.567 24.899-50.567 24.991-50.57 25.081-50.575 25.081-50.277 25.516-49.355 26.506-49.355 27.404-49.355 27.95-50.068 27.95-50.821 27.95-51.244 27.722-51.498 27.165-51.681 27.832-51.676 28.145-51.345 28.326-50.908 28.369-50.867 28.417-50.85 28.462-50.85 28.64-50.85 28.799-51.104 28.662-51.312M-1.38-1.547H-1.766C-4.453-1.547-3.98-4.221-3.37-4.828-3.108-4.458-2.702-4.305-2.287-4.305-1.868-4.305-1.437-4.46-1.118-4.716-.907-4.673-.697-4.655-.496-4.655 .896-4.655 1.927-5.59 1.786-6.693 1.522-6.654 .948-6.542 .42-6.542 .217-6.542 .021-6.559-.146-6.603-1.316-6.894-1.015-7.699-1.015-7.699-1.015-7.699-.321-7.387 .336-7.387 .409-7.387 .479-7.39 .55-7.4 1.029-7.457 1.582-7.608 2.042-7.608 2.594-7.608 3.016-7.393 3.016-6.542 3.016-4.884 .874-4.874-.208-3.785-.621-3.371-.765-2.656-.814-2.146-1.069-2.013-1.283-1.801-1.38-1.547M-10.83-56.187C-10.849-56.664-10.891-57.048-11.123-57.475-10.971-57.506-10.819-57.521-10.672-57.521-9.926-57.521-9.318-57.086-9.329-56.286-9.476-56.314-9.661-56.328-9.857-56.328-10.181-56.328-10.539-56.286-10.83-56.187M-16.64-59.489C-16.932-59.647-17.343-59.753-17.722-59.753-17.857-59.753-17.987-59.74-18.107-59.71-18.06-60.457-17.496-60.841-16.813-60.841-16.624-60.841-16.427-60.816-16.227-60.755-16.493-60.351-16.585-59.97-16.64-59.489M-22.22-57.003C-22.363-57.897-21.661-58.447-20.773-58.447-20.722-58.447-20.669-58.444-20.618-58.439-20.79-57.988-20.792-57.593-20.742-57.117-20.916-57.163-21.124-57.188-21.335-57.188-21.65-57.188-21.972-57.131-22.22-57.003M-23.538-51.552C-24.281-52.157-24.061-53.1-23.304-53.692-23.126-53.239-22.866-52.942-22.512-52.624-22.912-52.421-23.373-51.988-23.538-51.552M-12.452-52.121C-12.424-52.227-12.359-52.347-12.255-52.456-12.279-52.149-12.211-51.773-11.885-51.409-11.172-50.626-7.747-47.755-5.609-45.928-5.655-45.826-5.696-45.713-5.736-45.605-6.348-46.169-7.037-46.352-7.635-46.426-9.474-48.32-11.474-50.41-12.242-51.318-12.405-51.506-12.502-51.945-12.452-52.121M-23.142-50.85C-23.095-50.85-23.046-50.867-23.006-50.908-22.824-51.345-22.512-51.676-21.844-51.681-22.4-51.498-22.629-51.244-22.629-50.821-22.629-50.068-22.084-49.355-21.184-49.355-20.195-49.355-19.759-50.277-19.759-50.575-19.671-50.57-19.578-50.567-19.487-50.567-18.787-50.567-18.016-50.689-17.472-50.862-17.343-50.906-16.256-51.32-15.489-51.32-15.27-51.32-15.076-51.287-14.94-51.2-14.784-51.104-14.636-50.964-14.585-50.906-14.391-50.964-14.192-50.997-13.997-50.997-13.554-50.997-13.106-50.837-12.693-50.489-13.024-50.602-13.433-50.683-13.814-50.683-14.162-50.683-14.488-50.616-14.714-50.453-14.296-50.22-13.676-49.71-13.239-49.294-13.009-49.342-12.792-49.369-12.589-49.369-12.094-49.369-11.689-49.223-11.407-48.877-11.641-48.968-12.049-49.075-12.463-49.075-12.738-49.075-13.017-49.027-13.246-48.905-12.852-48.609-12.226-48.129-11.819-47.606-11.607-47.641-11.381-47.672-11.155-47.672-10.758-47.672-10.361-47.58-10.05-47.265-10.316-47.336-10.663-47.41-11.013-47.41-11.299-47.41-11.587-47.361-11.829-47.214-11.511-46.957-10.72-46.284-10.473-45.973-10.331-46.001-10.179-46.017-10.021-46.017-9.616-46.017-9.185-45.91-8.854-45.599-9.163-45.684-9.477-45.745-9.775-45.745-10.05-45.745-10.308-45.694-10.533-45.569-10.151-45.244-9.623-44.705-9.045-44.12-8.825-44.11-8.599-44.095-8.376-44.066-8.502-44.72-8.578-45.671-8.159-46.375-9.935-48.206-11.807-50.168-12.558-51.051-12.801-51.338-12.936-51.912-12.85-52.227-12.753-52.587-12.468-52.927-12.033-53.079-11.918-53.118-11.807-53.133-11.705-53.133-11.166-53.133-10.745-52.69-10.151-52.69-10.129-52.69-10.103-52.693-10.077-52.695-8.634-52.787-8.414-54.297-8.778-54.773-9.1-55.197-9.597-55.439-10.147-55.439-9.999-55.489-9.846-55.51-9.702-55.51-9.325-55.51-8.988-55.375-8.896-55.304-8.714-55.334-8.613-55.792-9.068-55.896-9.308-55.952-9.551-55.978-9.776-55.978-10.246-55.978-10.662-55.876-10.901-55.754-11.368-55.52-11.664-55.106-11.733-54.49-11.833-54.51-12.14-54.543-12.539-54.543-13.015-54.543-13.57-54.51-14.148-54.363-14.119-54.137-14.066-53.893-13.916-53.6-14.604-54.14-14.675-55.495-16.128-56.829-15.888-57.406-15.751-58.317-16.458-58.927-16.934-59.341-17.497-59.426-17.884-59.426-18.042-59.426-18.17-59.412-18.251-59.399-18.727-59.328-18.672-58.907-18.527-58.881-18.352-58.909-18.119-58.955-17.888-58.955-17.612-58.955-17.342-58.892-17.177-58.653-17.301-58.677-17.485-58.714-17.693-58.714-18.022-58.714-18.409-58.627-18.714-58.279-19.275-57.638-18.977-56.006-17.546-56.006-17.433-56.006-17.313-56.018-17.186-56.036-16.382-54.712-16.282-54.035-14.91-52.642-15.233-52.787-15.797-53.138-16.106-53.498-16.408-53.664-16.753-53.943-17.008-54.173-17.946-55.006-18.568-55.23-19.544-55.294-19.544-55.889-20.004-56.542-20.637-56.753-20.844-56.821-21.056-56.853-21.266-56.853-21.628-56.853-21.981-56.761-22.256-56.639-22.751-56.412-22.658-55.993-22.427-55.985-22.184-56.187-21.83-56.326-21.48-56.326-21.27-56.326-21.06-56.275-20.879-56.155-20.978-56.171-21.075-56.176-21.175-56.176-21.766-56.176-22.315-55.942-22.446-55.535-22.652-54.885-22.363-54.213-21.833-53.873-21.612-53.735-21.345-53.651-21.06-53.651-20.676-53.651-20.265-53.809-19.938-54.198-19.377-53.735-18.995-53.73-18.421-53.489-17.724-53.199-16.875-52.706-16.396-52.38-17.037-52.507-17.247-52.599-17.654-52.741-18.755-52.672-19.102-52.296-20.058-51.811-20.296-52.113-20.783-52.426-21.518-52.426-21.701-52.426-21.901-52.406-22.116-52.363-22.721-52.241-23.062-51.734-23.339-51.312-23.479-51.104-23.317-50.85-23.142-50.85" fill="#ffcb04"/>
<path transform="matrix(1,0,0,-1,95.9956,59.4989)" d="M0 0H2.334C2.986 0 3.559 .079 4.054 .236 4.548 .394 4.962 .615 5.295 .903 5.629 1.19 5.88 1.534 6.049 1.933 6.217 2.331 6.302 2.771 6.302 3.255 6.302 4.236 5.978 4.976 5.33 5.475 4.682 5.973 3.718 6.222 2.438 6.222H0ZM0-1.621V-8.498H-2.22V7.981H2.438C3.48 7.981 4.381 7.876 5.14 7.665 5.899 7.454 6.526 7.149 7.021 6.751 7.515 6.352 7.881 5.871 8.119 5.308 8.356 4.744 8.475 4.113 8.475 3.416 8.475 2.833 8.383 2.289 8.199 1.783 8.015 1.277 7.749 .822 7.4 .42 7.051 .018 6.625-.325 6.124-.609 5.622-.893 5.052-1.107 4.416-1.253 4.692-1.414 4.937-1.648 5.152-1.954L9.959-8.498H7.981C7.574-8.498 7.275-8.341 7.084-8.026L2.806-2.139C2.675-1.954 2.534-1.822 2.38-1.742 2.227-1.661 1.997-1.621 1.69-1.621Z" fill="#231f20"/>
<path transform="matrix(1,0,0,-1,111.9575,57.669805)" d="M0 0C-.989 0-1.767-.286-2.334-.856-2.902-1.428-3.254-2.22-3.393-3.231H2.944C2.944-2.757 2.879-2.321 2.749-1.927 2.618-1.531 2.427-1.19 2.173-.903 1.92-.615 1.612-.394 1.248-.236 .884-.079 .468 0 0 0M-.046 1.507C.652 1.507 1.295 1.39 1.886 1.155 2.477 .922 2.986 .584 3.416 .144 3.845-.297 4.18-.842 4.422-1.489 4.663-2.138 4.784-2.875 4.784-3.703 4.784-4.025 4.75-4.24 4.681-4.347 4.612-4.455 4.481-4.508 4.29-4.508H-3.461C-3.446-5.244-3.346-5.885-3.163-6.429-2.979-6.973-2.726-7.428-2.403-7.791-2.082-8.155-1.698-8.428-1.253-8.607-.809-8.788-.311-8.878 .242-8.878 .755-8.878 1.198-8.819 1.57-8.7 1.941-8.581 2.262-8.453 2.53-8.314 2.798-8.177 3.022-8.049 3.203-7.93 3.383-7.811 3.538-7.751 3.668-7.751 3.837-7.751 3.968-7.816 4.06-7.946L4.635-8.694C4.381-9.001 4.079-9.268 3.726-9.493 3.374-9.72 2.996-9.905 2.593-10.051 2.191-10.197 1.775-10.306 1.346-10.379 .916-10.452 .491-10.488 .069-10.488-.736-10.488-1.478-10.352-2.156-10.08-2.834-9.808-3.421-9.409-3.916-8.884-4.41-8.358-4.795-7.709-5.071-6.935-5.348-6.16-5.485-5.271-5.485-4.267-5.485-3.454-5.361-2.695-5.112-1.989-4.863-1.284-4.504-.673-4.037-.155-3.569 .362-2.998 .769-2.323 1.063-1.648 1.358-.889 1.507-.046 1.507" fill="#231f20"/>
<path transform="matrix(1,0,0,-1,124.5381,57.796804)" d="M0 0C-.667 0-1.252-.153-1.754-.46-2.256-.767-2.718-1.199-3.14-1.759V-7.395C-2.764-7.9-2.352-8.257-1.903-8.464-1.455-8.671-.955-8.774-.403-8.774 .678-8.774 1.51-8.387 2.093-7.612 2.675-6.839 2.967-5.734 2.967-4.301 2.967-3.542 2.899-2.891 2.766-2.346 2.631-1.802 2.438-1.354 2.185-1.006 1.932-.657 1.621-.402 1.253-.241 .885-.08 .467 0 0 0M-5.187-14.145V1.449H-3.968C-3.676 1.449-3.493 1.308-3.416 1.023L-3.243-.356C-2.745 .249-2.176 .736-1.536 1.104-.896 1.473-.157 1.656 .678 1.656 1.345 1.656 1.951 1.527 2.495 1.271 3.04 1.014 3.503 .635 3.887 .133 4.27-.37 4.565-.992 4.772-1.736 4.979-2.479 5.083-3.335 5.083-4.301 5.083-5.159 4.968-5.959 4.738-6.698 4.508-7.438 4.178-8.078 3.749-8.619 3.319-9.159 2.792-9.585 2.167-9.896 1.542-10.206 .839-10.361 .057-10.361-.664-10.361-1.279-10.242-1.789-10.005-2.298-9.768-2.749-9.43-3.14-8.993V-14.145Z" fill="#231f20"/>
<path transform="matrix(1,0,0,-1,133.8184,56.347505)" d="M0 0V-7.429C0-8.311 .203-8.993 .609-9.476 1.016-9.959 1.629-10.2 2.449-10.2 3.047-10.2 3.611-10.059 4.14-9.775 4.669-9.491 5.156-9.097 5.6-8.591V0H7.647V-11.649H6.428C6.137-11.649 5.953-11.508 5.876-11.224L5.715-9.971C5.209-10.53 4.642-10.98 4.013-11.321 3.385-11.663 2.664-11.833 1.851-11.833 1.215-11.833 .653-11.728 .167-11.518-.32-11.307-.729-11.01-1.058-10.626-1.388-10.242-1.635-9.779-1.8-9.234-1.965-8.69-2.047-8.088-2.047-7.429V0Z" fill="#231f20"/>
<path transform="matrix(1,0,0,-1,150.1016,57.796804)" d="M0 0C-.667 0-1.251-.153-1.753-.46-2.255-.767-2.717-1.199-3.139-1.759V-7.395C-2.771-7.9-2.363-8.257-1.914-8.464-1.465-8.671-.965-8.774-.413-8.774 .675-8.774 1.511-8.387 2.094-7.612 2.676-6.839 2.968-5.734 2.968-4.301 2.968-3.542 2.9-2.891 2.767-2.346 2.632-1.802 2.438-1.354 2.186-1.006 1.933-.657 1.622-.402 1.254-.241 .886-.08 .468 0 0 0M-5.197-10.2V6.739H-3.139V-.229C-2.656 .33-2.102 .78-1.477 1.121-.852 1.463-.137 1.634 .668 1.634 1.342 1.634 1.952 1.507 2.496 1.254 3.04 1.001 3.504 .623 3.888 .121 4.271-.381 4.566-1.002 4.773-1.742 4.98-2.481 5.084-3.335 5.084-4.301 5.084-5.159 4.969-5.959 4.738-6.698 4.509-7.438 4.177-8.078 3.744-8.619 3.311-9.159 2.781-9.585 2.157-9.896 1.532-10.206 .829-10.361 .047-10.361-.705-10.361-1.343-10.216-1.868-9.924-2.393-9.633-2.851-9.227-3.242-8.705L-3.346-9.764C-3.407-10.055-3.583-10.2-3.875-10.2Z" fill="#231f20"/>
<path transform="matrix(1,0,0,-1,0,107.787)" d="M159.969 39.79H157.922V56.729H159.969Z" fill="#231f20"/>
<path transform="matrix(1,0,0,-1,0,107.787)" d="M165.857 39.79H163.81V51.439004H165.857ZM166.317 55.097C166.317 54.897 166.277 54.711 166.196 54.539 166.116 54.366 166.009 54.213 165.875 54.079 165.74 53.944 165.585 53.839 165.409 53.763 165.232 53.686 165.045 53.647 164.846 53.647 164.646 53.647 164.46 53.686 164.288 53.763 164.115 53.839 163.962 53.944 163.827 54.079 163.693 54.213 163.588 54.366 163.512 54.539 163.435 54.711 163.396 54.897 163.396 55.097 163.396 55.296 163.435 55.485 163.512 55.666 163.588 55.846 163.693 56.003 163.827 56.137 163.962 56.271 164.115 56.377 164.288 56.454 164.46 56.53 164.646 56.568 164.846 56.568 165.045 56.568 165.232 56.53 165.409 56.454 165.585 56.377 165.74 56.271 165.875 56.137 166.009 56.003 166.116 55.846 166.196 55.666 166.277 55.485 166.317 55.296 166.317 55.097" fill="#231f20"/>
<path transform="matrix(1,0,0,-1,177.415,58.417905)" d="M0 0C-.062-.084-.123-.149-.185-.195-.246-.241-.334-.264-.449-.264-.564-.264-.688-.216-.822-.12-.957-.024-1.128 .081-1.335 .196-1.541 .311-1.793 .416-2.088 .512-2.383 .608-2.745 .656-3.175 .656-3.742 .656-4.244 .554-4.681 .352-5.118 .147-5.484-.146-5.779-.528-6.074-.912-6.297-1.376-6.446-1.92-6.596-2.465-6.671-3.074-6.671-3.749-6.671-4.454-6.59-5.081-6.429-5.629-6.268-6.177-6.042-6.637-5.75-7.009-5.459-7.381-5.104-7.664-4.687-7.859-4.269-8.056-3.8-8.153-3.278-8.153-2.779-8.153-2.369-8.094-2.048-7.975-1.726-7.856-1.457-7.724-1.242-7.578-1.028-7.433-.852-7.301-.714-7.182-.575-7.062-.437-7.003-.3-7.003-.123-7.003 .007-7.068 .092-7.198L.667-7.946C.16-8.567-.472-9.021-1.231-9.309-1.99-9.597-2.791-9.74-3.635-9.74-4.363-9.74-5.039-9.605-5.664-9.338-6.289-9.069-6.831-8.681-7.291-8.17-7.752-7.66-8.113-7.034-8.378-6.29-8.643-5.547-8.775-4.699-8.775-3.749-8.775-2.883-8.654-2.081-8.413-1.345-8.171-.609-7.818 .025-7.354 .559-6.891 1.091-6.318 1.507-5.636 1.806-4.953 2.104-4.171 2.255-3.289 2.255-2.477 2.255-1.756 2.122-1.128 1.857-.499 1.593 .057 1.22 .54 .736Z" fill="#231f20"/>
<path transform="matrix(1,0,0,-1,189.3623,66.5595)" d="M0 0C1.15 0 2.009 .385 2.576 1.155 3.144 1.926 3.428 3.002 3.428 4.382 3.428 5.77 3.144 6.85 2.576 7.624 2.009 8.398 1.15 8.786 0 8.786-.582 8.786-1.088 8.687-1.518 8.487-1.947 8.287-2.306 8-2.593 7.624-2.88 7.249-3.095 6.787-3.236 6.238-3.379 5.69-3.449 5.071-3.449 4.382-3.449 3.691-3.379 3.074-3.236 2.53-3.095 1.985-2.88 1.527-2.593 1.155-2.306 .784-1.947 .498-1.518 .299-1.088 .1-.582 0 0 0M0 10.396C.852 10.396 1.62 10.254 2.307 9.971 2.992 9.687 3.575 9.284 4.054 8.763 4.533 8.241 4.901 7.611 5.158 6.871 5.415 6.131 5.543 5.306 5.543 4.393 5.543 3.473 5.415 2.645 5.158 1.909 4.901 1.173 4.533 .544 4.054 .023 3.575-.498 2.992-.899 2.307-1.179 1.62-1.459 .852-1.599 0-1.599-.851-1.599-1.619-1.459-2.306-1.179-2.991-.899-3.576-.498-4.059 .023-4.542 .544-4.914 1.173-5.175 1.909-5.436 2.645-5.565 3.473-5.565 4.393-5.565 5.306-5.436 6.131-5.175 6.871-4.914 7.611-4.542 8.241-4.059 8.763-3.576 9.284-2.991 9.687-2.306 9.971-1.619 10.254-.851 10.396 0 10.396" fill="#231f20"/>
<path transform="matrix(1,0,0,-1,197.665,67.997)" d="M0 0V9.901L-1.288 10.051C-1.448 10.089-1.581 10.148-1.685 10.229-1.788 10.31-1.84 10.427-1.84 10.58V11.42H0V12.547C0 13.213 .094 13.806 .282 14.323 .47 14.841 .738 15.278 1.087 15.634 1.436 15.991 1.855 16.261 2.347 16.445 2.837 16.629 3.389 16.721 4.002 16.721 4.523 16.721 5.007 16.644 5.451 16.491L5.405 15.467C5.397 15.314 5.332 15.222 5.21 15.191 5.087 15.161 4.915 15.146 4.692 15.146H4.336C3.983 15.146 3.663 15.1 3.376 15.007 3.088 14.916 2.841 14.766 2.634 14.559 2.427 14.352 2.268 14.08 2.156 13.743 2.045 13.405 1.99 12.987 1.99 12.489V11.42H5.359V9.936H2.059V0Z" fill="#231f20"/>
<path transform="matrix(1,0,0,-1,211.752,60.0624)" d="M0 0H2.646C3.281 0 3.843 .085 4.33 .254 4.816 .422 5.225 .658 5.555 .961 5.885 1.264 6.134 1.626 6.303 2.048 6.471 2.469 6.556 2.933 6.556 3.438 6.556 4.489 6.231 5.31 5.584 5.9 4.936 6.49 3.956 6.786 2.646 6.786H0ZM0-1.771V-7.935H-2.219V8.545H2.646C3.688 8.545 4.595 8.424 5.365 8.183 6.136 7.941 6.773 7.598 7.28 7.153 7.786 6.708 8.163 6.172 8.412 5.543 8.661 4.915 8.786 4.213 8.786 3.438 8.786 2.672 8.652 1.971 8.384 1.334 8.115 .698 7.723 .15 7.205-.311 6.687-.771 6.045-1.129 5.278-1.386 4.512-1.643 3.635-1.771 2.646-1.771Z" fill="#231f20"/>
<path transform="matrix(1,0,0,-1,227.1504,66.5595)" d="M0 0C1.15 0 2.009 .385 2.576 1.155 3.144 1.926 3.428 3.002 3.428 4.382 3.428 5.77 3.144 6.85 2.576 7.624 2.009 8.398 1.15 8.786 0 8.786-.582 8.786-1.088 8.687-1.518 8.487-1.947 8.287-2.306 8-2.593 7.624-2.88 7.249-3.095 6.787-3.236 6.238-3.379 5.69-3.449 5.071-3.449 4.382-3.449 3.691-3.379 3.074-3.236 2.53-3.095 1.985-2.88 1.527-2.593 1.155-2.306 .784-1.947 .498-1.518 .299-1.088 .1-.582 0 0 0M0 10.396C.852 10.396 1.62 10.254 2.307 9.971 2.992 9.687 3.575 9.284 4.054 8.763 4.533 8.241 4.901 7.611 5.158 6.871 5.415 6.131 5.543 5.306 5.543 4.393 5.543 3.473 5.415 2.645 5.158 1.909 4.901 1.173 4.533 .544 4.054 .023 3.575-.498 2.992-.899 2.307-1.179 1.62-1.459 .852-1.599 0-1.599-.851-1.599-1.619-1.459-2.306-1.179-2.991-.899-3.576-.498-4.059 .023-4.542 .544-4.914 1.173-5.175 1.909-5.436 2.645-5.565 3.473-5.565 4.393-5.565 5.306-5.436 6.131-5.175 6.871-4.914 7.611-4.542 8.241-4.059 8.763-3.576 9.284-2.991 9.687-2.306 9.971-1.619 10.254-.851 10.396 0 10.396" fill="#231f20"/>
<path transform="matrix(1,0,0,-1,0,107.787)" d="M237.501 39.79H235.45401V56.729H237.501Z" fill="#231f20"/>
<path transform="matrix(1,0,0,-1,244.3545,66.7431)" d="M0 0C.36 0 .69 .036 .989 .108 1.288 .182 1.57 .285 1.834 .419 2.099 .554 2.352 .717 2.594 .908 2.835 1.1 3.07 1.318 3.301 1.563V3.967C2.357 3.967 1.557 3.907 .897 3.788 .237 3.668-.299 3.512-.713 3.319-1.127 3.127-1.428 2.899-1.615 2.637-1.804 2.375-1.897 2.082-1.897 1.758-1.897 1.449-1.848 1.184-1.748 .96-1.648 .736-1.514 .553-1.346 .41-1.177 .268-.978 .163-.747 .098-.518 .032-.269 0 0 0M5.313-1.254H4.404C4.205-1.254 4.044-1.224 3.922-1.162 3.799-1.101 3.719-.971 3.68-.771L3.45 .311C3.144 .034 2.845-.213 2.553-.432 2.262-.65 1.955-.834 1.633-.983 1.312-1.133 .968-1.246 .604-1.323 .239-1.399-.165-1.437-.609-1.437-1.062-1.437-1.485-1.374-1.88-1.248-2.275-1.121-2.618-.931-2.909-.677-3.201-.423-3.433-.102-3.605 .287-3.777 .676-3.864 1.136-3.864 1.666-3.864 2.128-3.737 2.572-3.484 2.999-3.231 3.426-2.823 3.805-2.26 4.136-1.696 4.467-.958 4.737-.046 4.949 .866 5.161 1.981 5.267 3.301 5.267V6.181C3.301 7.091 3.106 7.779 2.72 8.246 2.333 8.713 1.76 8.946 1.001 8.946 .502 8.946 .082 8.884-.259 8.757-.6 8.63-.896 8.488-1.145 8.331-1.394 8.174-1.608 8.032-1.788 7.906-1.969 7.779-2.146 7.716-2.323 7.716-2.461 7.716-2.582 7.752-2.686 7.825-2.789 7.898-2.871 7.988-2.933 8.096L-3.301 8.751C-2.656 9.372-1.963 9.836-1.219 10.143-.476 10.449 .349 10.603 1.254 10.603 1.905 10.603 2.484 10.495 2.99 10.28 3.496 10.065 3.922 9.767 4.267 9.384 4.611 9 4.872 8.536 5.049 7.992 5.225 7.447 5.313 6.85 5.313 6.198Z" fill="#231f20"/>
<path transform="matrix(1,0,0,-1,252.7725,67.997)" d="M0 0V11.649H1.22C1.511 11.649 1.694 11.508 1.771 11.224L1.933 9.959C2.438 10.519 3.004 10.971 3.629 11.316 4.253 11.661 4.976 11.834 5.796 11.834 6.433 11.834 6.994 11.728 7.481 11.518 7.968 11.307 8.374 11.007 8.7 10.62 9.025 10.233 9.273 9.768 9.441 9.223 9.61 8.679 9.694 8.077 9.694 7.418V0H7.647V7.418C7.647 8.299 7.446 8.983 7.044 9.471 6.642 9.957 6.026 10.2 5.198 10.2 4.593 10.2 4.027 10.055 3.502 9.764 2.977 9.472 2.492 9.077 2.047 8.579V0Z" fill="#231f20"/>
<path transform="matrix(1,0,0,-1,269.793,66.5018)" d="M0 0C.667 0 1.251 .153 1.754 .46 2.256 .767 2.718 1.199 3.14 1.76V7.395C2.764 7.9 2.352 8.255 1.903 8.458 1.455 8.661 .958 8.763 .414 8.763-.675 8.763-1.511 8.376-2.093 7.602-2.676 6.827-2.967 5.723-2.967 4.289-2.967 3.53-2.902 2.881-2.771 2.34-2.642 1.8-2.449 1.354-2.196 1.006-1.943 .657-1.633 .402-1.265 .241-.897 .08-.476 0 0 0M3.968-1.495C3.676-1.495 3.492-1.354 3.415-1.069L3.231 .345C2.733-.261 2.164-.746 1.523-1.11 .884-1.474 .149-1.656-.679-1.656-1.346-1.656-1.951-1.527-2.496-1.271-3.04-1.014-3.504-.637-3.887-.138-4.271 .36-4.565 .981-4.772 1.725-4.979 2.469-5.083 3.323-5.083 4.289-5.083 5.147-4.968 5.947-4.738 6.687-4.508 7.427-4.177 8.069-3.743 8.613-3.311 9.157-2.783 9.585-2.162 9.896-1.541 10.206-.836 10.361-.046 10.361 .667 10.361 1.276 10.24 1.782 9.999 2.288 9.758 2.74 9.418 3.14 8.981V15.444H5.187V-1.495Z" fill="#231f20"/>
</g>
<path transform="matrix(1,0,0,-1,0,107.787)" d="M283.047 16.979H93.545V21.089H283.047Z" fill="#ed1c24"/>
<path transform="matrix(1,0,0,-1,0,107.787)" d="M283.046 21.09H93.54498V25.2H283.046Z" fill="#ffffff"/>
<path transform="matrix(1,0,0,-1,0,107.787)" d="M93.545 25.2H283.04603V25.484002H93.545Z" fill="#231f20"/>
</g>
</svg>
