<?xml version="1.0" standalone="no"?>
<!DOCTYPE svg PUBLIC "-//W3C//DTD SVG 20010904//EN"
 "http://www.w3.org/TR/2001/REC-SVG-20010904/DTD/svg10.dtd">
<svg version="1.0" xmlns="http://www.w3.org/2000/svg"
 width="816.000000pt" height="224.000000pt" viewBox="0 0 816.000000 224.000000"
 preserveAspectRatio="xMidYMid meet">

<g transform="translate(0.000000,224.000000) scale(0.100000,-0.100000)"
fill="#000000" stroke="none">
<path d="M400 1900 c-156 -120 -286 -223 -288 -229 -3 -9 990 -1504 1022
-1538 9 -10 131 169 516 754 278 422 505 773 505 780 0 7 -121 112 -270 233
l-270 220 -465 -1 -465 0 -285 -219z m925 144 c-11 -5 -655 -134 -667 -134 -5
0 8 32 27 70 l35 70 308 -1 c169 0 303 -2 297 -5z m297 -69 c15 -37 28 -72 28
-77 0 -4 -174 -8 -387 -8 -212 0 -384 2 -381 5 7 8 690 154 702 151 6 -1 23
-33 38 -71z m-1086 -147 c-140 -292 -187 -388 -191 -388 -5 0 -145 207 -145
214 0 5 389 306 396 306 2 0 -25 -60 -60 -132z m1333 -3 l154 -126 -108 3
-108 3 -53 123 c-29 67 -49 122 -46 122 4 0 76 -56 161 -125z m-160 -56 c11
-29 21 -56 21 -60 0 -5 -97 -9 -215 -9 l-215 0 0 -245 0 -246 -157 3 -158 3
-3 243 -2 242 -215 0 -215 0 30 60 30 60 539 0 538 0 22 -51z m-799 -314 l0
-175 -108 113 c-59 61 -134 140 -166 175 l-59 62 166 0 167 0 0 -175z m778
157 c-7 -11 -82 -90 -165 -178 l-153 -159 0 178 0 177 166 0 c158 0 165 -1
152 -18z m360 9 c-6 -18 -463 -709 -466 -706 -2 2 49 163 114 359 l117 356
119 0 c70 0 118 -4 116 -9z m-1474 -283 c43 -123 100 -285 127 -361 27 -76 45
-136 41 -133 -5 3 -86 121 -181 264 l-172 259 48 97 c26 53 50 96 53 96 3 0
41 -100 84 -222z m1006 -210 c-68 -211 -126 -386 -129 -390 -4 -4 -64 50 -134
120 l-127 128 252 266 c139 146 255 264 257 262 2 -2 -52 -176 -119 -386z
m-691 74 l221 -232 0 -336 c0 -184 -4 -333 -8 -330 -5 3 -54 74 -110 158
l-101 153 -151 439 c-82 241 -150 443 -150 449 0 13 1 12 299 -301z m351 -60
c0 -4 -23 -30 -51 -57 l-51 -50 -44 50 c-24 27 -44 53 -44 57 0 5 43 8 95 8
52 0 95 -4 95 -8z m68 -651 c-61 -91 -114 -170 -119 -175 -5 -6 -9 116 -9 284
l0 295 119 -119 119 -119 -110 -166z"/>
<path d="M2664 1666 c-3 -8 -4 -31 -2 -52 l3 -39 93 -3 92 -3 0 -504 0 -505
65 0 65 0 0 505 0 505 90 0 90 0 0 55 0 55 -245 0 c-201 0 -247 -3 -251 -14z"/>
<path d="M3390 1642 c-32 -31 -39 -47 -45 -92 -3 -30 -5 -244 -3 -475 3 -379
5 -423 21 -452 31 -58 64 -68 222 -68 156 0 178 7 215 68 19 30 20 54 20 490
0 506 0 509 -62 547 -29 18 -50 20 -182 20 l-148 0 -38 -38z m308 -524 l2
-438 -115 0 -115 0 0 440 0 441 113 -3 112 -3 3 -437z"/>
<path d="M4132 1660 c-62 -38 -62 -41 -62 -547 0 -436 1 -460 20 -490 37 -61
59 -68 215 -68 158 0 191 10 222 68 17 29 18 71 18 497 0 438 -1 467 -19 496
-34 57 -58 64 -218 64 -126 0 -147 -2 -176 -20z m288 -540 l0 -440 -115 0
-115 0 0 433 c0 239 3 437 7 440 3 4 55 7 115 7 l108 0 0 -440z"/>
<path d="M4770 1121 l0 -561 65 0 65 0 0 169 0 169 128 4 c137 4 162 13 199
66 16 25 18 53 18 322 0 266 -2 299 -18 323 -38 58 -54 62 -264 65 l-193 4 0
-561z m350 174 l0 -265 -110 0 -110 0 0 265 0 265 110 0 110 0 0 -265z"/>
<path d="M5477 1673 c-4 -3 -7 -255 -7 -560 l0 -553 190 0 190 0 0 60 0 60
-125 0 -125 0 0 500 0 500 -58 0 c-32 0 -62 -3 -65 -7z"/>
<path d="M6032 1660 c-62 -38 -62 -41 -62 -547 0 -436 1 -460 20 -490 37 -62
58 -68 220 -68 158 0 178 6 217 63 17 25 18 59 18 497 0 443 -1 472 -19 501
-34 57 -58 64 -218 64 -126 0 -147 -2 -176 -20z m288 -540 l0 -441 -112 3
-113 3 -3 425 c-1 234 0 431 3 438 3 8 36 12 115 12 l110 0 0 -440z"/>
<path d="M6774 1670 c-11 -4 -33 -22 -47 -40 l-27 -32 0 -475 c0 -525 -2 -510
64 -549 24 -15 56 -19 146 -22 135 -5 185 6 225 48 l30 31 3 475 c3 524 4 515
-61 554 -28 17 -50 20 -172 19 -77 0 -149 -4 -161 -9z m276 -550 l0 -440 -115
0 -115 0 0 440 0 440 115 0 115 0 0 -440z"/>
<path d="M7466 1493 c109 -312 114 -326 114 -343 0 -13 -162 -489 -195 -573
-7 -16 -2 -18 60 -15 l68 3 71 203 c67 192 72 202 83 175 6 -15 40 -108 74
-205 l63 -178 63 0 c35 0 63 4 63 9 0 5 -47 139 -103 299 l-104 291 89 252
c48 138 88 256 88 260 0 5 -29 9 -64 9 l-64 0 -38 -107 c-69 -197 -82 -229
-88 -213 -3 8 -24 69 -47 135 -68 200 -57 185 -133 185 l-65 0 65 -187z"/>
</g>
</svg>
