<?xml version="1.0" standalone="no"?>
<!DOCTYPE svg PUBLIC "-//W3C//DTD SVG 20010904//EN"
 "http://www.w3.org/TR/2001/REC-SVG-20010904/DTD/svg10.dtd">
<svg version="1.0" xmlns="http://www.w3.org/2000/svg"
 width="329.000000pt" height="570.000000pt" viewBox="0 0 329.000000 570.000000"
 preserveAspectRatio="xMidYMid meet">

<g transform="translate(0.000000,570.000000) scale(0.100000,-0.100000)"
fill="#000000" stroke="none">
<path d="M0 4055 l0 -1645 1645 0 1645 0 0 1645 0 1645 -1645 0 -1645 0 0
-1645z m1735 1210 c546 -58 995 -105 999 -105 3 0 6 -4 6 -10 0 -7 -337 -10
-990 -10 l-990 0 0 -1200 c0 -660 -4 -1200 -8 -1200 -5 0 -23 181 -41 403 -18
221 -63 776 -100 1232 -37 457 -65 832 -63 835 3 3 7 -2 10 -10 9 -26 58 -69
87 -76 15 -4 45 -1 66 5 94 28 106 157 22 220 -23 17 -25 20 -9 21 10 0 465
-47 1011 -105z m1002 -552 c-20 -640 -146 -1135 -378 -1484 -83 -124 -238
-280 -353 -354 -82 -54 -246 -134 -272 -135 -14 0 -36 54 -54 129 -9 36 -11
91 -7 163 3 59 2 108 -1 108 -4 0 -29 -18 -56 -40 -63 -52 -98 -53 -155 -6
-44 37 -44 40 9 51 19 4 58 23 87 42 44 30 58 35 92 30 l39 -5 -14 40 c-16 48
-18 90 -4 104 7 7 6 22 -4 46 -11 26 -14 59 -10 129 l5 94 -20 -24 c-12 -13
-35 -69 -53 -125 -17 -55 -33 -103 -34 -105 -1 -1 -13 4 -25 13 -22 15 -23 14
-41 -15 -16 -26 -17 -35 -6 -70 10 -36 10 -42 -10 -62 l-22 -21 0 24 c0 38
-13 51 -59 61 -23 5 -55 19 -71 30 -34 26 -72 20 -88 -13 -10 -22 -11 -22 -11
8 -1 51 27 68 102 61 34 -3 69 -9 78 -12 11 -4 22 3 34 21 17 26 17 27 -6 45
l-24 18 31 33 c61 63 94 166 94 290 0 56 -15 72 -23 24 -10 -64 -59 -150 -122
-212 -64 -65 -107 -84 -145 -64 -20 11 -19 13 29 66 64 70 92 142 97 254 l5
85 -19 -47 c-30 -72 -58 -113 -113 -162 -59 -53 -108 -73 -139 -56 -21 11 -20
12 18 54 81 88 122 192 121 305 l0 66 -24 -68 c-42 -123 -122 -207 -195 -207
-60 0 -63 16 -13 66 24 25 53 65 64 89 27 62 59 219 58 290 l-1 60 -17 -65
c-48 -178 -144 -297 -218 -269 l-23 8 30 48 c53 83 61 128 69 373 8 236 16
276 62 342 42 59 149 85 222 54 67 -27 116 -120 101 -189 -3 -18 -15 -49 -25
-69 -28 -55 -25 -107 10 -156 49 -67 196 -162 251 -162 15 0 20 7 20 28 0 16
11 66 25 112 28 95 32 156 10 186 -8 12 -37 31 -64 43 -49 21 -71 44 -71 75 0
11 8 10 39 -7 51 -28 65 -14 23 24 -34 30 -60 36 -93 19 -16 -9 -19 -7 -19 13
0 41 23 62 68 60 27 -1 42 3 46 13 7 18 73 18 106 -1 14 -8 28 -14 33 -15 4 0
7 29 7 65 l0 65 512 0 511 0 -6 -207z"/>
<path d="M2231 4820 c-112 -26 -158 -136 -107 -257 14 -35 26 -73 26 -86 0
-73 -167 -218 -277 -242 -30 -6 -33 -4 -33 17 0 13 -11 64 -25 113 -45 161
-35 208 52 247 39 17 73 50 73 71 0 4 -10 1 -22 -7 -25 -18 -68 -21 -68 -6 0
6 12 23 26 37 22 22 32 25 70 20 37 -4 44 -2 44 13 0 30 -36 53 -73 47 -26 -4
-36 -1 -46 15 -10 16 -19 19 -49 13 -20 -4 -49 -13 -64 -21 l-28 -15 0 -354 0
-355 23 0 c41 0 124 27 188 61 79 41 190 151 242 239 39 67 87 203 87 245 0
13 5 27 11 31 15 9 3 -106 -22 -216 -60 -259 -238 -431 -481 -466 l-48 -6 1
-597 0 -596 22 55 c18 47 21 76 20 193 0 75 3 137 7 137 4 0 15 -9 26 -21 10
-12 38 -32 61 -45 48 -29 72 -26 122 15 l35 29 -56 16 c-30 9 -61 23 -68 32
-27 31 -68 45 -105 35 -19 -5 -35 -7 -35 -4 0 3 7 30 16 60 13 44 14 60 4 83
-9 22 -9 33 0 51 9 15 11 47 6 98 -3 42 -2 90 2 106 l9 30 21 -35 c12 -19 34
-73 49 -120 31 -97 38 -109 55 -92 7 7 17 12 24 12 19 0 37 -56 30 -95 -4 -20
-4 -45 -1 -56 6 -18 8 -17 23 13 13 25 26 35 57 42 22 5 52 17 67 27 32 23 66
24 90 2 15 -13 18 -14 18 -1 0 48 -45 61 -155 44 -48 -7 -51 -6 -67 23 -16 29
-16 30 7 45 l24 15 -31 33 c-58 62 -80 128 -86 254 -3 76 -1 114 6 114 6 0 13
-18 17 -41 20 -116 156 -289 228 -289 46 0 66 15 39 29 -33 18 -93 108 -113
170 -21 68 -37 231 -22 231 5 0 15 -23 22 -50 27 -106 152 -240 223 -240 44 0
42 18 -7 71 -54 57 -80 112 -100 207 -16 75 -20 162 -6 162 5 0 14 -21 21 -47
18 -73 69 -161 116 -199 44 -37 99 -52 124 -35 12 9 8 17 -26 53 -23 24 -52
62 -64 86 -41 84 -87 370 -61 386 6 4 11 0 11 -10 0 -40 34 -154 67 -222 36
-77 94 -132 139 -132 35 0 37 15 9 56 -48 70 -57 123 -65 364 -6 198 -9 232
-29 282 -39 100 -124 150 -220 128z m-366 -39 c8 -14 -36 -41 -67 -41 -34 0
-36 13 -6 34 25 18 64 21 73 7z m455 -51 c22 -40 -26 -80 -58 -48 -13 13 -16
50 -5 61 14 14 53 6 63 -13z m-70 -65 c17 -21 -2 -65 -28 -65 -22 0 -42 19
-42 40 0 37 47 53 70 25z m125 -35 c0 -32 -2 -35 -30 -35 -24 0 -31 5 -33 23
-6 38 5 54 35 50 25 -3 28 -7 28 -38z"/>
<path d="M1599 4766 c13 -15 81 -27 81 -14 0 12 -37 28 -66 28 -21 0 -24 -3
-15 -14z"/>
<path d="M1142 4738 c-30 -30 3 -77 40 -57 30 16 16 69 -17 69 -6 0 -16 -5
-23 -12z"/>
<path d="M1212 4668 c-18 -18 -14 -46 7 -58 34 -18 67 30 39 58 -7 7 -17 12
-23 12 -6 0 -16 -5 -23 -12z"/>
<path d="M1082 4658 c-30 -30 11 -85 44 -57 25 21 11 69 -21 69 -6 0 -16 -5
-23 -12z"/>
<path d="M1176 4550 c31 -318 214 -535 488 -578 l57 -9 -3 51 -3 51 -55 8
c-88 12 -192 67 -271 144 -106 102 -163 199 -204 346 l-15 52 6 -65z"/>
<path d="M1890 1970 c0 -54 -4 -72 -15 -76 -8 -4 -15 -12 -15 -20 0 -8 6 -11
15 -8 13 5 15 -8 15 -80 0 -76 2 -86 18 -86 16 0 17 9 14 99 -4 93 -3 100 17
113 11 7 21 19 21 27 0 12 -3 12 -12 3 -23 -23 -30 -11 -26 43 4 48 2 55 -14
55 -16 0 -18 -9 -18 -70z"/>
<path d="M783 1998 c2 -7 24 -77 48 -156 38 -123 47 -142 63 -140 15 2 28 29
59 122 46 137 43 137 93 -19 45 -143 54 -139 116 45 53 160 53 160 36 160 -8
0 -27 -49 -47 -121 -19 -66 -38 -122 -42 -125 -4 -2 -26 52 -49 121 -31 94
-46 125 -57 123 -10 -2 -30 -49 -58 -133 l-42 -130 -31 99 c-18 55 -35 114
-38 133 -5 27 -11 33 -31 33 -16 0 -23 -5 -20 -12z"/>
<path d="M1302 1898 c-19 -19 -22 -20 -22 -5 0 10 -8 17 -17 17 -16 0 -18 -12
-18 -105 -1 -95 1 -105 17 -105 16 0 18 9 18 71 0 82 11 109 45 109 18 0 25 5
25 20 0 26 -20 25 -48 -2z"/>
<path d="M1445 1908 c-36 -19 -55 -52 -55 -95 0 -81 37 -119 113 -117 107 3
137 163 40 213 -27 14 -72 14 -98 -1z m100 -31 c9 -12 15 -44 15 -74 0 -60
-23 -93 -65 -93 -42 0 -65 33 -65 91 0 58 12 87 43 98 29 11 55 3 72 -22z"/>
<path d="M1698 1904 c-36 -19 -48 -43 -48 -99 0 -56 21 -91 65 -105 42 -14
115 3 115 26 0 13 -3 13 -22 0 -32 -23 -63 -20 -95 8 -24 21 -28 32 -28 74 0
35 6 56 19 71 23 25 77 28 96 6 17 -20 30 -19 30 4 0 32 -83 42 -132 15z"/>
<path d="M2033 1910 c-13 -5 -23 -17 -23 -26 0 -16 1 -16 18 -1 28 26 70 22
84 -7 16 -37 4 -53 -46 -60 -25 -4 -53 -14 -61 -22 -20 -20 -19 -68 1 -85 19
-16 79 -15 98 1 10 7 16 8 21 0 8 -12 55 -14 55 -1 0 5 -7 11 -15 15 -12 4
-15 23 -15 84 0 64 -4 82 -18 95 -20 18 -64 21 -99 7z m87 -135 c0 -42 -40
-76 -69 -58 -26 16 -21 65 9 80 44 23 60 17 60 -22z"/>
<path d="M2484 1838 c-15 -43 -31 -78 -35 -78 -4 0 -18 33 -31 73 -32 95 -49
98 -77 15 -24 -71 -36 -94 -43 -82 -3 5 -15 39 -27 77 -18 53 -27 67 -43 67
-14 0 -18 -5 -14 -16 4 -9 21 -56 39 -105 21 -60 37 -88 46 -87 8 2 25 36 39
76 13 39 27 72 31 72 4 0 18 -34 32 -75 16 -49 29 -75 39 -75 10 0 29 37 55
103 22 56 41 105 43 108 1 3 -4 6 -12 6 -10 0 -25 -29 -42 -79z"/>
<path d="M717 1483 c-9 -15 -6 -199 4 -235 14 -54 50 -78 116 -78 63 0 105 18
121 54 6 14 14 80 18 146 6 105 5 120 -9 120 -13 0 -16 -20 -19 -126 -3 -124
-3 -126 -31 -150 -33 -28 -91 -32 -124 -9 -31 22 -43 74 -43 188 0 78 -3 97
-14 97 -8 0 -17 -3 -19 -7z"/>
<path d="M1315 1480 c-4 -7 -3 -16 3 -22 14 -14 45 -2 40 15 -6 16 -34 21 -43
7z"/>
<path d="M2205 1480 c-4 -7 -3 -16 3 -22 14 -14 45 -2 40 15 -6 16 -34 21 -43
7z"/>
<path d="M2327 1443 c-4 -3 -7 -17 -7 -30 0 -14 -6 -23 -15 -23 -8 0 -15 -4
-15 -10 0 -5 7 -10 15 -10 12 0 15 -16 15 -81 0 -44 5 -89 10 -100 12 -21 65
-26 90 -8 12 9 11 10 -7 6 -48 -11 -59 16 -55 131 2 51 3 52 32 52 17 0 30 5
30 10 0 6 -13 10 -30 10 -27 0 -30 3 -30 30 0 28 -17 40 -33 23z"/>
<path d="M1060 1280 c0 -88 3 -110 14 -110 11 0 15 21 17 86 3 71 7 88 23 100
26 18 51 18 70 -2 12 -12 16 -36 16 -100 0 -77 2 -84 20 -84 18 0 20 7 20 83
0 108 -12 131 -69 135 -30 2 -49 -2 -62 -14 -17 -16 -19 -16 -19 -1 0 10 -7
17 -15 17 -12 0 -15 -19 -15 -110z"/>
<path d="M1318 1280 c3 -88 6 -110 18 -110 11 0 14 21 14 110 0 98 -2 110 -17
110 -16 0 -18 -11 -15 -110z"/>
<path d="M1400 1388 c1 -21 90 -213 100 -213 7 0 30 41 51 90 51 117 53 125
37 125 -7 0 -25 -35 -41 -80 -16 -44 -32 -82 -36 -84 -6 -4 -28 45 -61 137 -6
17 -17 27 -30 27 -11 0 -20 -1 -20 -2z"/>
<path d="M1669 1377 c-26 -20 -39 -53 -39 -102 0 -64 39 -105 100 -105 44 0
80 14 80 31 0 6 -7 6 -19 -1 -53 -28 -121 3 -121 55 0 24 2 25 75 25 l75 0 0
33 c0 48 -34 77 -91 77 -24 0 -51 -6 -60 -13z m94 -9 c9 -7 18 -24 19 -38 3
-24 0 -25 -54 -28 -53 -3 -58 -1 -58 18 0 25 34 60 58 60 10 0 26 -6 35 -12z"/>
<path d="M1880 1280 c0 -103 1 -110 20 -110 18 0 20 7 20 79 0 87 15 117 51
106 14 -5 19 -1 19 14 0 26 -26 28 -52 4 -17 -15 -18 -15 -18 0 0 10 -8 17
-20 17 -19 0 -20 -7 -20 -110z"/>
<path d="M2036 1374 c-21 -20 -20 -68 1 -85 9 -8 30 -18 47 -24 26 -8 31 -15
31 -40 0 -26 -4 -30 -28 -33 -17 -2 -36 3 -47 13 -16 15 -18 14 -23 -4 -9 -36
79 -45 113 -11 39 39 13 110 -41 110 -9 0 -24 9 -33 19 -14 15 -15 24 -6 40
13 25 37 27 68 5 21 -14 22 -14 22 5 0 18 -6 21 -44 21 -27 0 -51 -6 -60 -16z"/>
<path d="M2210 1279 c0 -95 2 -110 16 -107 13 2 16 22 17 111 2 96 0 107 -15
107 -16 0 -18 -12 -18 -111z"/>
<path d="M2446 1353 c9 -21 30 -70 46 -109 l29 -72 -31 -62 c-24 -48 -28 -61
-15 -58 10 2 44 67 90 171 52 119 69 167 58 165 -9 -2 -29 -36 -46 -80 -16
-43 -33 -78 -37 -78 -3 0 -19 36 -35 80 -25 68 -33 80 -53 80 -22 0 -22 0 -6
-37z"/>
<path d="M1002 983 c-18 -7 -42 -57 -42 -88 0 -17 -7 -28 -22 -34 -20 -8 -21
-10 -5 -16 14 -6 17 -21 17 -101 0 -87 1 -94 20 -94 19 0 20 7 20 95 0 88 1
95 20 95 11 0 20 5 20 10 0 6 -9 10 -20 10 -25 0 -37 42 -21 76 7 16 19 24 36
24 16 0 25 6 25 15 0 15 -22 19 -48 8z"/>
<path d="M1244 956 c-18 -8 -36 -27 -44 -45 -19 -47 0 -84 58 -111 86 -40 99
-65 61 -114 -25 -32 -68 -35 -94 -6 -23 25 -35 25 -35 0 0 -27 43 -43 95 -36
103 13 117 150 18 180 -12 4 -33 16 -47 27 -63 50 5 130 71 84 15 -11 24 -12
28 -4 18 28 -63 46 -111 25z"/>
<path d="M1651 960 c-17 -10 -7 -40 14 -40 8 0 15 9 15 19 0 24 -12 32 -29 21z"/>
<path d="M745 861 c-35 -15 -57 -49 -62 -93 -5 -54 12 -88 59 -112 31 -18 40
-18 77 -7 115 34 103 204 -15 217 -21 2 -48 0 -59 -5z m90 -31 c10 -11 20 -41
22 -67 6 -60 -22 -103 -67 -103 -70 0 -98 141 -36 182 21 14 63 8 81 -12z"/>
<path d="M1474 860 c-55 -22 -81 -103 -53 -164 12 -27 63 -56 97 -56 30 0 72
18 72 31 0 7 -7 8 -17 4 -45 -19 -72 -17 -97 8 -34 34 -37 116 -6 147 25 25
74 26 99 1 19 -19 19 -19 24 0 9 33 -66 51 -119 29z"/>
<path d="M1794 861 c-35 -15 -54 -51 -54 -104 0 -60 21 -94 70 -108 44 -13
110 3 110 27 0 13 -3 13 -22 0 -31 -22 -60 -20 -92 5 -17 14 -26 30 -26 50 l0
29 75 0 75 0 0 29 c0 43 -28 72 -75 77 -22 2 -50 0 -61 -5z m94 -44 c18 -38 9
-47 -54 -47 -60 0 -69 14 -38 58 23 33 74 27 92 -11z"/>
<path d="M2046 849 c-21 -17 -26 -18 -26 -5 0 9 -7 16 -15 16 -12 0 -15 -18
-15 -105 0 -87 3 -105 15 -105 12 0 15 14 15 68 0 82 15 116 53 120 48 6 57
-11 57 -104 0 -77 2 -84 20 -84 18 0 20 7 20 85 0 78 -2 88 -25 110 -30 30
-64 32 -99 4z"/>
<path d="M2284 860 c-55 -22 -81 -103 -53 -164 12 -27 63 -56 97 -56 30 0 72
18 72 31 0 7 -7 8 -17 4 -45 -19 -72 -17 -97 8 -34 34 -37 116 -6 147 25 25
74 26 99 1 19 -19 19 -19 24 0 9 33 -66 51 -119 29z"/>
<path d="M2470 843 c-84 -75 -20 -218 89 -198 37 7 61 21 61 36 0 4 -12 1 -27
-7 -50 -25 -86 -16 -108 27 -28 54 -23 59 65 59 73 0 80 2 80 20 0 81 -97 119
-160 63z m110 -12 c5 -11 10 -29 10 -40 0 -19 -6 -21 -54 -21 -30 0 -58 4 -61
10 -7 11 12 51 29 62 22 15 65 8 76 -11z"/>
<path d="M1644 755 c-1 -95 1 -105 18 -105 16 0 18 10 18 105 0 94 -2 105 -18
105 -16 0 -18 -11 -18 -105z"/>
<path d="M800 388 l0 -79 -22 15 c-36 26 -85 20 -119 -13 -24 -24 -29 -38 -29
-76 0 -51 20 -99 45 -109 30 -11 80 -6 103 10 20 14 22 14 22 0 0 -9 8 -16 19
-16 17 0 18 10 17 169 -1 153 -3 170 -18 175 -16 4 -18 -5 -18 -76z m-19 -85
c8 -9 14 -39 14 -68 0 -62 -23 -95 -66 -95 -37 0 -59 33 -59 90 0 60 21 90 64
90 19 0 40 -7 47 -17z"/>
<path d="M1670 293 c0 -166 1 -173 20 -173 18 0 20 7 20 80 0 67 3 83 20 100
11 11 29 20 39 20 35 0 51 -38 51 -122 0 -63 3 -78 15 -78 12 0 15 17 15 93 0
78 -3 97 -18 110 -24 22 -80 22 -104 0 -17 -15 -18 -13 -18 63 0 73 -2 80 -20
80 -19 0 -20 -7 -20 -173z"/>
<path d="M2430 468 c0 -2 -2 -81 -3 -176 -2 -158 -1 -172 16 -172 15 0 17 15
17 175 0 149 -2 175 -15 175 -8 0 -15 -1 -15 -2z"/>
<path d="M1000 420 c0 -5 23 -10 50 -10 l50 0 0 -145 c0 -138 1 -145 20 -145
19 0 20 7 20 145 l0 145 50 0 c28 0 50 5 50 10 0 6 -47 10 -120 10 -73 0 -120
-4 -120 -10z"/>
<path d="M198 329 c-10 -5 -18 -15 -18 -21 0 -9 3 -9 12 0 20 20 76 15 88 -7
20 -38 12 -49 -42 -60 -28 -7 -58 -16 -65 -23 -16 -13 -17 -70 -1 -86 15 -15
80 -16 95 -1 8 8 16 7 30 -2 12 -7 29 -9 39 -5 18 7 18 8 2 17 -15 8 -18 24
-18 89 0 58 -4 83 -16 94 -17 18 -80 21 -106 5z m92 -128 c0 -36 -23 -61 -55
-61 -27 0 -48 30 -39 55 8 19 38 33 72 34 18 1 22 -4 22 -28z"/>
<path d="M400 230 c0 -87 3 -110 14 -110 10 0 15 20 17 79 4 83 23 121 60 121
37 0 49 -27 49 -116 0 -79 1 -84 21 -84 20 0 21 4 17 96 -2 81 -6 98 -22 110
-26 19 -76 18 -104 -2 -20 -14 -22 -14 -22 0 0 9 -7 16 -15 16 -12 0 -15 -19
-15 -110z"/>
<path d="M1238 310 c-28 -29 -30 -35 -26 -87 6 -70 37 -103 98 -103 42 0 90
17 90 33 0 5 -8 6 -17 1 -33 -14 -88 -15 -105 -2 -10 7 -21 28 -24 46 l-6 32
75 0 c42 0 79 5 82 10 10 16 -15 79 -35 90 -10 6 -37 10 -60 10 -33 0 -48 -6
-72 -30z m112 0 c11 -11 20 -29 20 -40 0 -18 -7 -20 -60 -20 -67 0 -74 9 -39
54 24 31 52 33 79 6z"/>
<path d="M1491 327 c-65 -38 -66 -162 -2 -197 28 -15 104 -12 127 4 28 21 12
29 -22 11 -41 -21 -51 -19 -85 14 -39 40 -41 109 -4 146 29 30 54 32 88 5 22
-18 26 -18 31 -3 9 23 3 26 -57 30 -32 2 -61 -2 -76 -10z"/>
<path d="M1920 230 c0 -103 1 -110 20 -110 18 0 20 7 20 80 0 67 3 83 20 100
11 11 29 20 39 20 35 0 51 -38 51 -122 0 -63 3 -78 15 -78 22 0 22 182 -1 204
-20 21 -83 20 -106 -1 -17 -15 -18 -15 -18 0 0 10 -8 17 -20 17 -19 0 -20 -7
-20 -110z"/>
<path d="M2189 311 c-25 -25 -29 -37 -29 -81 0 -44 4 -56 29 -81 24 -24 38
-29 76 -29 38 0 52 5 76 29 25 25 29 37 29 81 0 44 -4 56 -29 81 -42 42 -110
42 -152 0z m120 -7 c30 -38 29 -119 -1 -151 -26 -28 -61 -30 -88 -3 -16 16
-20 33 -20 80 0 47 4 64 20 80 28 28 64 25 89 -6z"/>
<path d="M2548 311 c-29 -26 -33 -35 -33 -81 0 -46 4 -55 33 -81 55 -49 138
-36 171 28 24 48 4 130 -38 153 -39 20 -98 12 -133 -19z m117 -6 c20 -19 25
-34 25 -75 0 -41 -5 -56 -25 -75 -41 -41 -86 -28 -105 31 -22 66 11 144 60
144 12 0 32 -11 45 -25z"/>
<path d="M2790 320 c-24 -24 -27 -82 -5 -100 11 -9 13 -16 5 -24 -14 -14 -13
-66 2 -66 6 0 2 -10 -10 -23 -50 -54 -17 -107 67 -107 45 0 57 4 82 29 18 19
29 40 29 58 0 47 -14 58 -82 63 -55 4 -63 8 -63 25 0 16 8 21 44 25 58 7 91
46 74 89 -10 26 -8 30 12 33 20 4 27 -6 65 -95 l42 -101 -22 -50 c-12 -28 -24
-57 -27 -63 -3 -8 2 -13 11 -13 9 0 16 5 16 11 0 6 25 68 56 137 94 213 87
194 69 190 -10 -2 -28 -33 -47 -80 -16 -43 -33 -78 -37 -78 -4 0 -20 36 -36
80 l-29 80 -98 0 c-85 0 -101 -3 -118 -20z m104 -22 c14 -41 -3 -82 -36 -86
-27 -3 -58 27 -58 58 0 58 76 80 94 28z m20 -194 c22 -22 20 -41 -9 -69 -28
-29 -70 -32 -97 -8 -23 21 -24 69 0 82 26 16 89 13 106 -5z"/>
</g>
</svg>
